<!DOCTYPE svg PUBLIC "-//W3C//DTD SVG 1.1//EN" "http://www.w3.org/Graphics/SVG/1.1/DTD/svg11.dtd"><svg xmlns="http://www.w3.org/2000/svg" id="sfn-svg" class="sfn-workflow-graph" width="1140" height="1748">  
<g transform="translate(12,19.375)"><g class="nodes"><g class="node-container" transform="translate(665.8984375,18.5)"><g class="node anchor"><circle class="shape" x="-15.875" y="-8.5" r="25.875"/><text class="label"><tspan xml:space="preserve" text-anchor="middle" alignment-baseline="central">Start</tspan></text></g></g><g class="node-container" transform="translate(268.9296875,1693.625)"><g class="node anchor"><circle class="shape" x="-12.1875" y="-8.5" r="22.1875"/><text class="label"><tspan xml:space="preserve" text-anchor="middle" alignment-baseline="central">End</tspan></text></g></g><g class="node-container" transform="translate(665.8984375,80.5)"><g class="node state Task Succeeded"><rect class="shape" rx="5" ry="5" x="-51.9375" y="-18.5" width="103.875" height="37"/><text class="label"><tspan xml:space="preserve" text-anchor="middle" alignment-baseline="central">Find Instance</tspan></text></g></g><g class="node-container" transform="translate(665.8984375,142.5)"><g class="node state Choice Succeeded"><rect class="shape" rx="5" ry="5" x="-61.15625" y="-18.5" width="122.3125" height="37"/><text class="label"><tspan xml:space="preserve" text-anchor="middle" alignment-baseline="central">Instance Found?</tspan></text></g></g><g class="node-container" transform="translate(88.8125,1631.59375)"><g class="node state Succeed NotYetStarted"><rect class="shape" rx="5" ry="5" x="-88.8125" y="-18.53125" width="177.625" height="37.0625"/><text class="label"><tspan xml:space="preserve" text-anchor="middle" alignment-baseline="central">Not A Migration Instance</tspan></text></g></g><g class="node-container" transform="translate(985.328125,204.5)"><g class="node state Task Succeeded"><rect class="shape" rx="5" ry="5" x="-66.484375" y="-18.5" width="132.96875" height="37"/><text class="label"><tspan xml:space="preserve" text-anchor="middle" alignment-baseline="central">Check/Build Repo</tspan></text></g></g><g class="node-container" transform="translate(985.328125,266.53125)"><g class="node state Task Succeeded"><rect class="shape" rx="5" ry="5" x="-79.546875" y="-18.53125" width="159.09375" height="37.0625"/><text class="label"><tspan xml:space="preserve" text-anchor="middle" alignment-baseline="central">Create Security Group</tspan></text></g></g><g class="node-container" transform="translate(985.328125,328.5625)"><g class="node state Task Succeeded"><rect class="shape" rx="5" ry="5" x="-71.390625" y="-18.5" width="142.78125" height="37"/><text class="label"><tspan xml:space="preserve" text-anchor="middle" alignment-baseline="central">Get Instance Status</tspan></text></g></g><g class="node-container" transform="translate(935.4296875,390.59375)"><g class="node state Choice Succeeded"><rect class="shape" rx="5" ry="5" x="-60.546875" y="-18.53125" width="121.09375" height="37.0625"/><text class="label"><tspan xml:space="preserve" text-anchor="middle" alignment-baseline="central">Instance Ready?</tspan></text></g></g><g class="node-container" transform="translate(707.40625,452.65625)"><g class="node state Wait Succeeded"><rect class="shape" rx="5" ry="5" x="-73.859375" y="-18.53125" width="147.71875" height="37.0625"/><text class="label"><tspan xml:space="preserve" text-anchor="middle" alignment-baseline="central">Instance Ready Wait</tspan></text></g></g><g class="node-container" transform="translate(278.921875,1569.53125)"><g class="node state Task NotYetStarted"><rect class="shape" rx="5" ry="5" x="-52.984375" y="-18.53125" width="105.96875" height="37.0625"/><text class="label"><tspan xml:space="preserve" text-anchor="middle" alignment-baseline="central">Notify Failure</tspan></text></g></g><g class="node-container" transform="translate(1050.2265625,452.65625)"><g class="node state Wait Succeeded"><rect class="shape" rx="5" ry="5" x="-64.796875" y="-18.5" width="129.59375" height="37"/><text class="label"><tspan xml:space="preserve" text-anchor="middle" alignment-baseline="central">Wait For Instance</tspan></text></g></g><g class="node-container" transform="translate(707.40625,514.71875)"><g class="node state Task Succeeded"><rect class="shape" rx="5" ry="5" x="-68.90625" y="-18.53125" width="137.8125" height="37.0625"/><text class="label"><tspan xml:space="preserve" text-anchor="middle" alignment-baseline="central">Create Root Image</tspan></text></g></g><g class="node-container" transform="translate(707.40625,576.78125)"><g class="node state Task Succeeded"><rect class="shape" rx="5" ry="5" x="-81.5" y="-18.53125" width="163" height="37.0625"/><text class="label"><tspan xml:space="preserve" text-anchor="middle" alignment-baseline="central">Get Root Image Status</tspan></text></g></g><g class="node-container" transform="translate(619.4609375,638.84375)"><g class="node state Choice Succeeded"><rect class="shape" rx="5" ry="5" x="-82.140625" y="-18.53125" width="164.28125" height="37.0625"/><text class="label"><tspan xml:space="preserve" text-anchor="middle" alignment-baseline="central">Root Image Complete?</tspan></text></g></g><g class="node-container" transform="translate(606.5859375,700.90625)"><g class="node state Task NotYetStarted"><rect class="shape" rx="5" ry="5" x="-86.734375" y="-18.53125" width="173.46875" height="37.0625"/><text class="label"><tspan xml:space="preserve" text-anchor="middle" alignment-baseline="central">Create Snapshots Image</tspan></text></g></g><g class="node-container" transform="translate(822.2265625,700.90625)"><g class="node state Wait InProgress"><rect class="shape" rx="5" ry="5" x="-74.90625" y="-18.53125" width="149.8125" height="37.0625"/><text class="label"><tspan xml:space="preserve" text-anchor="middle" alignment-baseline="central">Wait For Root Image</tspan></text></g></g><g class="node-container" transform="translate(606.5859375,762.96875)"><g class="node state Task NotYetStarted"><rect class="shape" rx="5" ry="5" x="-99.328125" y="-18.53125" width="198.65625" height="37.0625"/><text class="label"><tspan xml:space="preserve" text-anchor="middle" alignment-baseline="central">Get Snapshots Image Status</tspan></text></g></g><g class="node-container" transform="translate(493.96875,825.03125)"><g class="node state Choice NotYetStarted"><rect class="shape" rx="5" ry="5" x="-99.953125" y="-18.53125" width="199.90625" height="37.0625"/><text class="label"><tspan xml:space="preserve" text-anchor="middle" alignment-baseline="central">Snapshots Image Complete?</tspan></text></g></g><g class="node-container" transform="translate(528.328125,887.09375)"><g class="node state Task NotYetStarted"><rect class="shape" rx="5" ry="5" x="-49.53125" y="-18.53125" width="99.0625" height="37.0625"/><text class="label"><tspan xml:space="preserve" text-anchor="middle" alignment-baseline="central">Share Image</tspan></text></g></g><g class="node-container" transform="translate(712.4921875,887.09375)"><g class="node state Wait NotYetStarted"><rect class="shape" rx="5" ry="5" x="-92.734375" y="-18.53125" width="185.46875" height="37.0625"/><text class="label"><tspan xml:space="preserve" text-anchor="middle" alignment-baseline="central">Wait For Snapshots Image</tspan></text></g></g><g class="node-container" transform="translate(528.328125,949.15625)"><g class="node state Task NotYetStarted"><rect class="shape" rx="5" ry="5" x="-47.4375" y="-18.53125" width="94.875" height="37.0625"/><text class="label"><tspan xml:space="preserve" text-anchor="middle" alignment-baseline="central">Copy Image</tspan></text></g></g><g class="node-container" transform="translate(528.328125,1011.21875)"><g class="node state Wait NotYetStarted"><rect class="shape" rx="5" ry="5" x="-54.359375" y="-18.53125" width="108.71875" height="37.0625"/><text class="label"><tspan xml:space="preserve" text-anchor="middle" alignment-baseline="central">Wait For Copy</tspan></text></g></g><g class="node-container" transform="translate(329.3125,1073.28125)"><g class="node state Task NotYetStarted"><rect class="shape" rx="5" ry="5" x="-60.9375" y="-18.53125" width="121.875" height="37.0625"/><text class="label"><tspan xml:space="preserve" text-anchor="middle" alignment-baseline="central">Get Copy Status</tspan></text></g></g><g class="node-container" transform="translate(528.328125,1135.34375)"><g class="node state Choice NotYetStarted"><rect class="shape" rx="5" ry="5" x="-61.578125" y="-18.53125" width="123.15625" height="37.0625"/><text class="label"><tspan xml:space="preserve" text-anchor="middle" alignment-baseline="central">Copy Complete?</tspan></text></g></g><g class="node-container" transform="translate(593.484375,1197.40625)"><g class="node state Task NotYetStarted"><rect class="shape" rx="5" ry="5" x="-57.40625" y="-18.53125" width="114.8125" height="37.0625"/><text class="label"><tspan xml:space="preserve" text-anchor="middle" alignment-baseline="central">Image Cleanup</tspan></text></g></g><g class="node-container" transform="translate(278.921875,1631.59375)"><g class="node state Fail NotYetStarted"><rect class="shape" rx="5" ry="5" x="-61.296875" y="-18.53125" width="122.59375" height="37.0625"/><text class="label"><tspan xml:space="preserve" text-anchor="middle" alignment-baseline="central">Migration Failed</tspan></text></g></g><g class="node-container" transform="translate(593.484375,1259.4375)"><g class="node state Task NotYetStarted"><rect class="shape" rx="5" ry="5" x="-66.46875" y="-18.5" width="132.9375" height="37"/><text class="label"><tspan xml:space="preserve" text-anchor="middle" alignment-baseline="central">Launch Terraform</tspan></text></g></g><g class="node-container" transform="translate(593.484375,1321.4375)"><g class="node state Choice NotYetStarted"><rect class="shape" rx="5" ry="5" x="-95.3125" y="-18.5" width="190.625" height="37"/><text class="label"><tspan xml:space="preserve" text-anchor="middle" alignment-baseline="central">Launch Terraform Success?</tspan></text></g></g><g class="node-container" transform="translate(535.0390625,1383.4375)"><g class="node state Wait NotYetStarted"><rect class="shape" rx="5" ry="5" x="-81.890625" y="-18.5" width="163.78125" height="37"/><text class="label"><tspan xml:space="preserve" text-anchor="middle" alignment-baseline="central">Wait For Final Instance</tspan></text></g></g><g class="node-container" transform="translate(473.296875,1445.4375)"><g class="node state Task NotYetStarted"><rect class="shape" rx="5" ry="5" x="-88.484375" y="-18.5" width="176.96875" height="37"/><text class="label"><tspan xml:space="preserve" text-anchor="middle" alignment-baseline="central">Get Final Instance Status</tspan></text></g></g><g class="node-container" transform="translate(535.0390625,1507.46875)"><g class="node state Choice NotYetStarted"><rect class="shape" rx="5" ry="5" x="-77.640625" y="-18.53125" width="155.28125" height="37.0625"/><text class="label"><tspan xml:space="preserve" text-anchor="middle" alignment-baseline="central">Final Instance Ready?</tspan></text></g></g><g class="node-container" transform="translate(496.6171875,1631.59375)"><g class="node state Succeed NotYetStarted"><rect class="shape" rx="5" ry="5" x="-68.828125" y="-18.53125" width="137.65625" height="37.0625"/><text class="label"><tspan xml:space="preserve" text-anchor="middle" alignment-baseline="central">Migration Finished</tspan></text></g></g></g><g class="edges"><g class="edge"><path class="path" marker-end="url(#arrowhead45)" d="M665.8984375,99L665.8984374999999,101.08333333333333C665.8984375,103.16666666666666,665.8984375,107.33333333333333,665.8984374999999,111.5C665.8984375,115.66666666666666,665.8984375,119.83333333333331,665.8984374999999,121.91666666666666L665.8984375,124" style="fill: none;"/><defs><marker id="arrowhead45" viewBox="0 0 10 10" refX="9" refY="5" markerUnits="strokeWidth" markerWidth="8" markerHeight="6" orient="auto"><path d="M 0 0 L 10 5 L 0 10 z"/></marker></defs></g><g class="edge"><path class="path" marker-end="url(#arrowhead46)" d="M665.8984375,44.375L665.8984374999999,45.229166666666664C665.8984375,46.08333333333333,665.8984375,47.791666666666664,665.8984374999999,50.72916666666667C665.8984375,53.666666666666664,665.8984375,57.83333333333333,665.8984374999999,59.91666666666666L665.8984375,62" style="fill: none;"/><defs><marker id="arrowhead46" viewBox="0 0 10 10" refX="9" refY="5" markerUnits="strokeWidth" markerWidth="8" markerHeight="6" orient="auto"><path d="M 0 0 L 10 5 L 0 10 z"/></marker></defs></g><g class="edge"><path class="path" marker-end="url(#arrowhead47)" d="M604.7421875,145.7852017815804L518.75390625,150.40433481798368C432.765625,155.02346785438692,260.7890625,164.26173392719346,174.80078125,174.0475336302634C88.8125,183.83333333333331,88.8125,194.16666666666663,88.81249999999999,204.49999999999997C88.8125,214.83333333333331,88.8125,225.16666666666666,88.81249999999999,235.50520833333331C88.8125,245.84375,88.8125,256.1875,88.81249999999999,266.53125C88.8125,276.875,88.8125,287.21875,88.81249999999999,297.5572916666667C88.8125,307.8958333333333,88.8125,318.22916666666663,88.81249999999999,328.56249999999994C88.8125,338.8958333333333,88.8125,349.22916666666663,88.81249999999999,359.5677083333333C88.8125,369.90625,88.8125,380.25,88.81249999999999,390.59374999999994C88.8125,400.9375,88.8125,411.28125,88.81249999999999,421.62499999999994C88.8125,431.96875,88.8125,442.3125,88.81249999999999,452.65624999999994C88.8125,463,88.8125,473.34375,88.81249999999999,483.68749999999994C88.8125,494.03125,88.8125,504.375,88.81249999999999,514.71875C88.8125,525.0625,88.8125,535.40625,88.81249999999999,545.75C88.8125,556.09375,88.8125,566.4375,88.81249999999999,576.78125C88.8125,587.125,88.8125,597.46875,88.81249999999999,607.8125C88.8125,618.15625,88.8125,628.5,88.81249999999999,638.84375C88.8125,649.1875,88.8125,659.53125,88.81249999999999,669.875C88.8125,680.21875,88.8125,690.5625,88.81249999999999,700.90625C88.8125,711.25,88.8125,721.59375,88.81249999999999,731.9375C88.8125,742.28125,88.8125,752.625,88.81249999999999,762.96875C88.8125,773.3125,88.8125,783.6562499999999,88.81249999999999,794C88.8125,804.3437499999999,88.8125,814.6874999999999,88.81249999999999,825.0312499999998C88.8125,835.3749999999999,88.8125,845.7187499999999,88.81249999999999,856.0624999999998C88.8125,866.4062499999999,88.8125,876.7499999999999,88.81249999999999,887.0937499999998C88.8125,897.4374999999999,88.8125,907.7812499999999,88.81249999999999,918.1249999999998C88.8125,928.4687499999999,88.8125,938.8124999999999,88.81249999999999,949.1562499999998C88.8125,959.4999999999999,88.8125,969.8437499999999,88.81249999999999,980.1874999999998C88.8125,990.5312499999999,88.8125,1000.8749999999999,88.81249999999999,1011.2187499999998C88.8125,1021.5624999999999,88.8125,1031.90625,88.81249999999999,1042.2499999999998C88.8125,1052.59375,88.8125,1062.9375,88.81249999999999,1073.2812499999998C88.8125,1083.625,88.8125,1093.96875,88.81249999999999,1104.3124999999998C88.8125,1114.65625,88.8125,1125,88.81249999999999,1135.3437499999998C88.8125,1145.6875,88.8125,1156.03125,88.81249999999999,1166.3749999999998C88.8125,1176.71875,88.8125,1187.0625,88.81249999999999,1197.4062499999998C88.8125,1207.75,88.8125,1218.09375,88.81249999999999,1228.4322916666665C88.8125,1238.7708333333333,88.8125,1249.1041666666665,88.81249999999999,1259.4375C88.8125,1269.7708333333333,88.8125,1280.1041666666665,88.81249999999999,1290.4374999999998C88.8125,1300.7708333333333,88.8125,1311.1041666666665,88.81249999999999,1321.4375C88.8125,1331.7708333333333,88.8125,1342.1041666666665,88.81249999999999,1352.4375C88.8125,1362.7708333333333,88.8125,1373.1041666666665,88.81249999999999,1383.4374999999998C88.8125,1393.7708333333333,88.8125,1404.1041666666665,88.81249999999999,1414.4375C88.8125,1424.7708333333333,88.8125,1435.1041666666665,88.81249999999999,1445.4375C88.8125,1455.7708333333333,88.8125,1466.1041666666665,88.81249999999999,1476.4427083333333C88.8125,1486.78125,88.8125,1497.125,88.81249999999999,1507.46875C88.8125,1517.8125,88.8125,1528.1562499999998,88.81249999999999,1538.5C88.8125,1548.8437499999998,88.8125,1559.1874999999998,88.81249999999999,1569.5312499999995C88.8125,1579.8749999999998,88.8125,1590.2187499999998,88.81249999999999,1597.473958333333C88.8125,1604.7291666666665,88.8125,1608.8958333333333,88.81249999999999,1610.9791666666665L88.8125,1613.0625" style="fill: none;"/><defs><marker id="arrowhead47" viewBox="0 0 10 10" refX="9" refY="5" markerUnits="strokeWidth" markerWidth="8" markerHeight="6" orient="auto"><path d="M 0 0 L 10 5 L 0 10 z"/></marker></defs></g><g class="edge"><path class="path" marker-end="url(#arrowhead48)" d="M727.0546875,148.43508939271652L770.1002604166666,152.61257449393042C813.1458333333333,156.79005959514433,899.2369791666666,165.14502979757216,942.2825520833333,171.4058482321194C985.328125,177.66666666666666,985.328125,181.83333333333331,985.3281249999999,183.91666666666666L985.328125,186" style="fill: none;"/><defs><marker id="arrowhead48" viewBox="0 0 10 10" refX="9" refY="5" markerUnits="strokeWidth" markerWidth="8" markerHeight="6" orient="auto"><path d="M 0 0 L 10 5 L 0 10 z"/></marker></defs></g><g class="edge"><path class="path" marker-end="url(#arrowhead49)" d="M88.8125,1650.125L88.81249999999999,1652.208333333333C88.8125,1654.2916666666665,88.8125,1658.458333333333,115.18769675372249,1665.081106298797C141.56289350744498,1671.703879264261,194.31328701488997,1680.7827585285222,220.68848376861249,1685.322198160653L247.06368052233498,1689.8616377927835" style="fill: none;"/><defs><marker id="arrowhead49" viewBox="0 0 10 10" refX="9" refY="5" markerUnits="strokeWidth" markerWidth="8" markerHeight="6" orient="auto"><path d="M 0 0 L 10 5 L 0 10 z"/></marker></defs></g><g class="edge"><path class="path" marker-end="url(#arrowhead50)" d="M985.328125,223L985.3281249999999,225.08333333333331C985.328125,227.16666666666666,985.328125,231.33333333333331,985.3281249999999,235.5C985.328125,239.66666666666666,985.328125,243.83333333333331,985.3281249999999,245.91666666666663L985.328125,248" style="fill: none;"/><defs><marker id="arrowhead50" viewBox="0 0 10 10" refX="9" refY="5" markerUnits="strokeWidth" markerWidth="8" markerHeight="6" orient="auto"><path d="M 0 0 L 10 5 L 0 10 z"/></marker></defs></g><g class="edge"><path class="path" marker-end="url(#arrowhead51)" d="M985.328125,285.0625L985.3281249999999,287.1458333333333C985.328125,289.22916666666663,985.328125,293.3958333333333,985.3281249999999,297.5625C985.328125,301.72916666666663,985.328125,305.8958333333333,985.3281249999999,307.97916666666663L985.328125,310.0625" style="fill: none;"/><defs><marker id="arrowhead51" viewBox="0 0 10 10" refX="9" refY="5" markerUnits="strokeWidth" markerWidth="8" markerHeight="6" orient="auto"><path d="M 0 0 L 10 5 L 0 10 z"/></marker></defs></g><g class="edge"><path class="path" marker-end="url(#arrowhead52)" d="M955.5500252016129,347.0625L952.1966355846773,349.1458333333333C948.843245967742,351.22916666666663,942.136466733871,355.3958333333333,938.7830771169354,359.5625C935.4296875,363.72916666666663,935.4296875,367.8958333333333,935.4296874999999,369.9791666666667L935.4296875,372.0625" style="fill: none;"/><defs><marker id="arrowhead52" viewBox="0 0 10 10" refX="9" refY="5" markerUnits="strokeWidth" markerWidth="8" markerHeight="6" orient="auto"><path d="M 0 0 L 10 5 L 0 10 z"/></marker></defs></g><g class="edge"><path class="path" marker-end="url(#arrowhead53)" d="M874.8828125,398.8334521790523L846.9700520833331,402.63204348254357C819.0572916666665,406.43063478603483,763.2317708333333,414.0278173930174,735.3190104166666,419.90974202984205C707.40625,425.79166666666663,707.40625,429.95833333333326,707.4062499999999,432.04166666666663L707.40625,434.125" style="fill: none;"/><defs><marker id="arrowhead53" viewBox="0 0 10 10" refX="9" refY="5" markerUnits="strokeWidth" markerWidth="8" markerHeight="6" orient="auto"><path d="M 0 0 L 10 5 L 0 10 z"/></marker></defs></g><g class="edge"><path class="path" marker-end="url(#arrowhead54)" d="M936.6986955563948,409.125L936.8413608803289,411.2083333333333C936.9840262042632,413.29166666666663,937.2693568521315,417.4583333333333,937.4120221760656,424.71354166666663C937.5546874999999,431.96875,937.5546874999999,442.3125,937.5546874999998,452.65624999999994C937.5546874999999,463,937.5546874999999,473.34375,937.5546874999998,483.68749999999994C937.5546874999999,494.03125,937.5546874999999,504.375,937.5546874999998,514.71875C937.5546874999999,525.0625,937.5546874999999,535.40625,937.5546874999998,545.75C937.5546874999999,556.09375,937.5546874999999,566.4375,937.5546874999998,576.78125C937.5546874999999,587.125,937.5546874999999,597.46875,937.5546874999998,607.8125C937.5546874999999,618.15625,937.5546874999999,628.5,937.5546874999998,638.84375C937.5546874999999,649.1875,937.5546874999999,659.53125,937.5546874999998,669.875C937.5546874999999,680.21875,937.5546874999999,690.5625,937.5546874999998,700.90625C937.5546874999999,711.25,937.5546874999999,721.59375,937.5546874999998,731.9375C937.5546874999999,742.28125,937.5546874999999,752.625,937.5546874999998,762.96875C937.5546874999999,773.3125,937.5546874999999,783.6562499999999,937.5546874999998,794C937.5546874999999,804.3437499999999,937.5546874999999,814.6874999999999,937.5546874999998,825.0312499999998C937.5546874999999,835.3749999999999,937.5546874999999,845.7187499999999,937.5546874999998,856.0624999999998C937.5546874999999,866.4062499999999,937.5546874999999,876.7499999999999,937.5546874999998,887.0937499999998C937.5546874999999,897.4374999999999,937.5546874999999,907.7812499999999,937.5546874999998,918.1249999999998C937.5546874999999,928.4687499999999,937.5546874999999,938.8124999999999,937.5546874999998,949.1562499999998C937.5546874999999,959.4999999999999,937.5546874999999,969.8437499999999,937.5546874999998,980.1874999999998C937.5546874999999,990.5312499999999,937.5546874999999,1000.8749999999999,937.5546874999998,1011.2187499999998C937.5546874999999,1021.5624999999999,937.5546874999999,1031.90625,937.5546874999998,1042.2499999999998C937.5546874999999,1052.59375,937.5546874999999,1062.9375,937.5546874999998,1073.2812499999998C937.5546874999999,1083.625,937.5546874999999,1093.96875,937.5546874999998,1104.3124999999998C937.5546874999999,1114.65625,937.5546874999999,1125,937.5546874999998,1135.3437499999998C937.5546874999999,1145.6875,937.5546874999999,1156.03125,937.5546874999998,1166.3749999999998C937.5546874999999,1176.71875,937.5546874999999,1187.0625,937.5546874999998,1197.4062499999998C937.5546874999999,1207.75,937.5546874999999,1218.09375,937.5546874999998,1228.4322916666665C937.5546874999999,1238.7708333333333,937.5546874999999,1249.1041666666665,937.5546874999998,1259.4375C937.5546874999999,1269.7708333333333,937.5546874999999,1280.1041666666665,937.5546874999998,1290.4374999999998C937.5546874999999,1300.7708333333333,937.5546874999999,1311.1041666666665,937.5546874999998,1321.4375C937.5546874999999,1331.7708333333333,937.5546874999999,1342.1041666666665,937.5546874999998,1352.4375C937.5546874999999,1362.7708333333333,937.5546874999999,1373.1041666666665,937.5546874999998,1383.4374999999998C937.5546874999999,1393.7708333333333,937.5546874999999,1404.1041666666665,937.5546874999998,1414.4375C937.5546874999999,1424.7708333333333,937.5546874999999,1435.1041666666665,937.5546874999998,1445.4375C937.5546874999999,1455.7708333333333,937.5546874999999,1466.1041666666665,937.5546874999998,1476.4427083333333C937.5546874999999,1486.78125,937.5546874999999,1497.125,937.5546874999998,1507.46875C937.5546874999999,1517.8125,937.5546874999999,1528.1562499999998,836.6132812499999,1538.0839433455903C735.6718749999999,1548.0116366911807,533.7890625,1557.5232733823616,432.84765624999994,1562.279091727952L331.90625,1567.0349100735425" style="fill: none;"/><defs><marker id="arrowhead54" viewBox="0 0 10 10" refX="9" refY="5" markerUnits="strokeWidth" markerWidth="8" markerHeight="6" orient="auto"><path d="M 0 0 L 10 5 L 0 10 z"/></marker></defs></g><g class="edge"><path class="path" marker-end="url(#arrowhead55)" d="M974.1857533987916,409.125L978.5428153323262,411.2083333333333C982.899877265861,413.29166666666663,991.6140011329305,417.4583333333333,999.3294506860523,421.6302083333333C1007.0449002391741,425.8020833333333,1013.7616754783483,429.97916666666663,1017.1200630979354,432.0677083333333L1020.4784507175226,434.15625" style="fill: none;"/><defs><marker id="arrowhead55" viewBox="0 0 10 10" refX="9" refY="5" markerUnits="strokeWidth" markerWidth="8" markerHeight="6" orient="auto"><path d="M 0 0 L 10 5 L 0 10 z"/></marker></defs></g><g class="edge"><path class="path" marker-end="url(#arrowhead56)" d="M1050.2265625,434.15625L1050.2265625,432.0677083333333C1050.2265625,429.97916666666663,1050.2265625,425.8020833333333,1050.2265625,418.54166666666663C1050.2265625,411.28125,1050.2265625,400.9375,1050.2265625,390.59374999999994C1050.2265625,380.25,1050.2265625,369.90625,1045.8651083669354,362.65104166666663C1041.503654233871,355.3958333333333,1032.780745967742,351.22916666666663,1028.4192918346773,349.1458333333333L1024.057837701613,347.0625" style="fill: none;"/><defs><marker id="arrowhead56" viewBox="0 0 10 10" refX="9" refY="5" markerUnits="strokeWidth" markerWidth="8" markerHeight="6" orient="auto"><path d="M 0 0 L 10 5 L 0 10 z"/></marker></defs></g><g class="edge"><path class="path" marker-end="url(#arrowhead57)" d="M707.40625,471.1875L707.4062499999999,473.2708333333333C707.40625,475.35416666666663,707.40625,479.5208333333333,707.4062499999999,483.6875C707.40625,487.85416666666663,707.40625,492.02083333333326,707.4062499999999,494.10416666666663L707.40625,496.1875" style="fill: none;"/><defs><marker id="arrowhead57" viewBox="0 0 10 10" refX="9" refY="5" markerUnits="strokeWidth" markerWidth="8" markerHeight="6" orient="auto"><path d="M 0 0 L 10 5 L 0 10 z"/></marker></defs></g><g class="edge"><path class="path" marker-end="url(#arrowhead58)" d="M707.40625,533.25L707.4062499999999,535.3333333333334C707.40625,537.4166666666666,707.40625,541.5833333333333,707.4062499999999,545.75C707.40625,549.9166666666666,707.40625,554.0833333333333,707.4062499999999,556.1666666666666L707.40625,558.25" style="fill: none;"/><defs><marker id="arrowhead58" viewBox="0 0 10 10" refX="9" refY="5" markerUnits="strokeWidth" markerWidth="8" markerHeight="6" orient="auto"><path d="M 0 0 L 10 5 L 0 10 z"/></marker></defs></g><g class="edge"><path class="path" marker-end="url(#arrowhead59)" d="M654.88704525428,595.3125L648.9826939619,597.3958333333334C643.07834266952,599.4791666666666,631.26964008476,603.6458333333333,625.36528879238,607.8125C619.4609375,611.9791666666666,619.4609375,616.1458333333333,619.4609375,618.2291666666666L619.4609375,620.3125" style="fill: none;"/><defs><marker id="arrowhead59" viewBox="0 0 10 10" refX="9" refY="5" markerUnits="strokeWidth" markerWidth="8" markerHeight="6" orient="auto"><path d="M 0 0 L 10 5 L 0 10 z"/></marker></defs></g><g class="edge"><path class="path" marker-end="url(#arrowhead60)" d="M537.3203125,644.4203158650395L474.8307291666666,648.6627632208663C412.3411458333333,652.905210576693,287.36197916666663,661.3901052883465,224.87239583333334,670.8044276441733C162.3828125,680.21875,162.3828125,690.5625,162.3828125,700.90625C162.3828125,711.25,162.3828125,721.59375,162.3828125,731.9375C162.3828125,742.28125,162.3828125,752.625,162.3828125,762.96875C162.3828125,773.3125,162.3828125,783.6562499999999,162.3828125,794C162.3828125,804.3437499999999,162.3828125,814.6874999999999,162.3828125,825.0312499999998C162.3828125,835.3749999999999,162.3828125,845.7187499999999,162.3828125,856.0624999999998C162.3828125,866.4062499999999,162.3828125,876.7499999999999,162.3828125,887.0937499999998C162.3828125,897.4374999999999,162.3828125,907.7812499999999,162.3828125,918.1249999999998C162.3828125,928.4687499999999,162.3828125,938.8124999999999,162.3828125,949.1562499999998C162.3828125,959.4999999999999,162.3828125,969.8437499999999,162.3828125,980.1874999999998C162.3828125,990.5312499999999,162.3828125,1000.8749999999999,162.3828125,1011.2187499999998C162.3828125,1021.5624999999999,162.3828125,1031.90625,162.3828125,1042.2499999999998C162.3828125,1052.59375,162.3828125,1062.9375,162.3828125,1073.2812499999998C162.3828125,1083.625,162.3828125,1093.96875,162.3828125,1104.3124999999998C162.3828125,1114.65625,162.3828125,1125,162.3828125,1135.3437499999998C162.3828125,1145.6875,162.3828125,1156.03125,162.3828125,1166.3749999999998C162.3828125,1176.71875,162.3828125,1187.0625,162.3828125,1197.4062499999998C162.3828125,1207.75,162.3828125,1218.09375,162.3828125,1228.4322916666665C162.3828125,1238.7708333333333,162.3828125,1249.1041666666665,162.3828125,1259.4375C162.3828125,1269.7708333333333,162.3828125,1280.1041666666665,162.3828125,1290.4374999999998C162.3828125,1300.7708333333333,162.3828125,1311.1041666666665,162.3828125,1321.4375C162.3828125,1331.7708333333333,162.3828125,1342.1041666666665,162.3828125,1352.4375C162.3828125,1362.7708333333333,162.3828125,1373.1041666666665,162.3828125,1383.4374999999998C162.3828125,1393.7708333333333,162.3828125,1404.1041666666665,162.3828125,1414.4375C162.3828125,1424.7708333333333,162.3828125,1435.1041666666665,162.3828125,1445.4375C162.3828125,1455.7708333333333,162.3828125,1466.1041666666665,162.3828125,1476.4427083333333C162.3828125,1486.78125,162.3828125,1497.125,162.3828125,1507.46875C162.3828125,1517.8125,162.3828125,1528.1562499999998,172.97526041666666,1536.1486119025271C183.56770833333331,1544.1409738050545,204.75260416666666,1549.7819476101092,215.34505208333334,1552.6024345126366L225.9375,1555.422921415164" style="fill: none;"/><defs><marker id="arrowhead60" viewBox="0 0 10 10" refX="9" refY="5" markerUnits="strokeWidth" markerWidth="8" markerHeight="6" orient="auto"><path d="M 0 0 L 10 5 L 0 10 z"/></marker></defs></g><g class="edge"><path class="path" marker-end="url(#arrowhead61)" d="M611.7722416289023,657.375L610.9078576074186,659.4583333333334C610.0434735859349,661.5416666666666,608.3147055429674,665.7083333333333,607.4503215214837,669.8749999999999C606.5859375,674.0416666666666,606.5859375,678.2083333333333,606.5859375,680.2916666666666L606.5859375,682.375" style="fill: none;"/><defs><marker id="arrowhead61" viewBox="0 0 10 10" refX="9" refY="5" markerUnits="strokeWidth" markerWidth="8" markerHeight="6" orient="auto"><path d="M 0 0 L 10 5 L 0 10 z"/></marker></defs></g><g class="edge"><path class="path" marker-end="url(#arrowhead62)" d="M689.2983698388721,657.375L697.1496831990601,659.4583333333334C705.000996559248,661.5416666666666,720.703623279624,665.7083333333333,734.3166226082578,669.8749999999999C747.9296219368915,674.0416666666666,759.452993873783,678.2083333333333,765.2146798422289,680.2916666666666L770.9763658106747,682.375" style="fill: none;"/><defs><marker id="arrowhead62" viewBox="0 0 10 10" refX="9" refY="5" markerUnits="strokeWidth" markerWidth="8" markerHeight="6" orient="auto"><path d="M 0 0 L 10 5 L 0 10 z"/></marker></defs></g><g class="edge"><path class="path" marker-end="url(#arrowhead63)" d="M846.0857801485398,682.375L848.7680980404498,680.2916666666666C851.4504159323598,678.2083333333333,856.8150517161798,674.0416666666666,859.4973696080899,666.7864583333334C862.1796874999999,659.53125,862.1796874999999,649.1875,862.1796874999998,638.84375C862.1796874999999,628.5,862.1796874999999,618.15625,849.9674479166665,610.5358859976781C837.7552083333333,602.9155219953561,813.3307291666666,598.0185439907123,801.1184895833333,595.5700549883903L788.90625,593.1215659860684" style="fill: none;"/><defs><marker id="arrowhead63" viewBox="0 0 10 10" refX="9" refY="5" markerUnits="strokeWidth" markerWidth="8" markerHeight="6" orient="auto"><path d="M 0 0 L 10 5 L 0 10 z"/></marker></defs></g><g class="edge"><path class="path" marker-end="url(#arrowhead64)" d="M606.5859375,719.4375L606.5859375,721.5208333333334C606.5859375,723.6041666666666,606.5859375,727.7708333333333,606.5859375,731.9374999999999C606.5859375,736.1041666666666,606.5859375,740.2708333333333,606.5859375,742.3541666666666L606.5859375,744.4375" style="fill: none;"/><defs><marker id="arrowhead64" viewBox="0 0 10 10" refX="9" refY="5" markerUnits="strokeWidth" markerWidth="8" markerHeight="6" orient="auto"><path d="M 0 0 L 10 5 L 0 10 z"/></marker></defs></g><g class="edge"><path class="path" marker-end="url(#arrowhead65)" d="M539.3331759818731,781.5L531.7724383182276,783.5833333333333C524.211700654582,785.6666666666666,509.090225327291,789.8333333333333,501.5294876636455,793.9999999999999C493.96875,798.1666666666665,493.96875,802.3333333333333,493.96875,804.4166666666666L493.96875,806.5" style="fill: none;"/><defs><marker id="arrowhead65" viewBox="0 0 10 10" refX="9" refY="5" markerUnits="strokeWidth" markerWidth="8" markerHeight="6" orient="auto"><path d="M 0 0 L 10 5 L 0 10 z"/></marker></defs></g><g class="edge"><path class="path" marker-end="url(#arrowhead66)" d="M394.015625,836.9189588510944L367.1888020833333,840.1095490425785C340.36197916666663,843.3001392340628,286.7083333333333,849.6813196170314,259.8815104166667,858.0437848085155C233.0546875,866.4062499999999,233.0546875,876.7499999999999,233.05468749999997,887.0937499999998C233.0546875,897.4374999999999,233.0546875,907.7812499999999,233.05468749999997,918.1249999999998C233.0546875,928.4687499999999,233.0546875,938.8124999999999,233.05468749999997,949.1562499999998C233.0546875,959.4999999999999,233.0546875,969.8437499999999,233.05468749999997,980.1874999999998C233.0546875,990.5312499999999,233.0546875,1000.8749999999999,233.05468749999997,1011.2187499999998C233.0546875,1021.5624999999999,233.0546875,1031.90625,233.05468749999997,1042.2499999999998C233.0546875,1052.59375,233.0546875,1062.9375,233.05468749999997,1073.2812499999998C233.0546875,1083.625,233.0546875,1093.96875,233.05468749999997,1104.3124999999998C233.0546875,1114.65625,233.0546875,1125,233.05468749999997,1135.3437499999998C233.0546875,1145.6875,233.0546875,1156.03125,233.05468749999997,1166.3749999999998C233.0546875,1176.71875,233.0546875,1187.0625,233.05468749999997,1197.4062499999998C233.0546875,1207.75,233.0546875,1218.09375,233.05468749999997,1228.4322916666665C233.0546875,1238.7708333333333,233.0546875,1249.1041666666665,233.05468749999997,1259.4375C233.0546875,1269.7708333333333,233.0546875,1280.1041666666665,233.05468749999997,1290.4374999999998C233.0546875,1300.7708333333333,233.0546875,1311.1041666666665,233.05468749999997,1321.4375C233.0546875,1331.7708333333333,233.0546875,1342.1041666666665,233.05468749999997,1352.4375C233.0546875,1362.7708333333333,233.0546875,1373.1041666666665,233.05468749999997,1383.4374999999998C233.0546875,1393.7708333333333,233.0546875,1404.1041666666665,233.05468749999997,1414.4375C233.0546875,1424.7708333333333,233.0546875,1435.1041666666665,233.05468749999997,1445.4375C233.0546875,1455.7708333333333,233.0546875,1466.1041666666665,233.05468749999997,1476.4427083333333C233.0546875,1486.78125,233.0546875,1497.125,233.05468749999997,1507.46875C233.0546875,1517.8125,233.0546875,1528.1562499999998,236.13405557653573,1535.4114583333333C239.2134236530715,1542.6666666666665,245.37215980614297,1546.8333333333333,248.45152788267873,1548.9166666666665L251.5308959592145,1551" style="fill: none;"/><defs><marker id="arrowhead66" viewBox="0 0 10 10" refX="9" refY="5" markerUnits="strokeWidth" markerWidth="8" markerHeight="6" orient="auto"><path d="M 0 0 L 10 5 L 0 10 z"/></marker></defs></g><g class="edge"><path class="path" marker-end="url(#arrowhead67)" d="M514.4874905589124,843.5625L516.7942629657604,845.6458333333333C519.1010353726083,847.7291666666666,523.7145801863041,851.8958333333333,526.0213525931521,856.0624999999999C528.328125,860.2291666666665,528.328125,864.3958333333333,528.328125,866.4791666666666L528.328125,868.5625" style="fill: none;"/><defs><marker id="arrowhead67" viewBox="0 0 10 10" refX="9" refY="5" markerUnits="strokeWidth" markerWidth="8" markerHeight="6" orient="auto"><path d="M 0 0 L 10 5 L 0 10 z"/></marker></defs></g><g class="edge"><path class="path" marker-end="url(#arrowhead68)" d="M579.0016207200403,843.5625L588.5612464333668,845.6458333333333C598.1208721466935,847.7291666666666,617.2401235733468,851.8958333333333,631.9110492195368,856.0624999999999C646.5819748657268,860.2291666666665,656.8045747314535,864.3958333333333,661.915874664317,866.4791666666666L667.0271745971803,868.5625" style="fill: none;"/><defs><marker id="arrowhead68" viewBox="0 0 10 10" refX="9" refY="5" markerUnits="strokeWidth" markerWidth="8" markerHeight="6" orient="auto"><path d="M 0 0 L 10 5 L 0 10 z"/></marker></defs></g><g class="edge"><path class="path" marker-end="url(#arrowhead69)" d="M741.674707326284,868.5625L744.9554852719033,866.4791666666665C748.2362632175226,864.3958333333333,754.7978191087612,860.2291666666665,758.0785970543806,852.9739583333333C761.359375,845.7187499999999,761.359375,835.3749999999999,761.3593749999999,825.0312499999998C761.359375,814.6874999999999,761.359375,804.3437499999999,750.968409071836,797.0885416666665C740.5774431436723,789.8333333333333,719.7955112873447,785.6666666666666,709.4045453591809,783.5833333333333L699.0135794310171,781.5" style="fill: none;"/><defs><marker id="arrowhead69" viewBox="0 0 10 10" refX="9" refY="5" markerUnits="strokeWidth" markerWidth="8" markerHeight="6" orient="auto"><path d="M 0 0 L 10 5 L 0 10 z"/></marker></defs></g><g class="edge"><path class="path" marker-end="url(#arrowhead70)" d="M528.328125,905.625L528.328125,907.7083333333333C528.328125,909.7916666666666,528.328125,913.9583333333333,528.328125,918.1249999999999C528.328125,922.2916666666665,528.328125,926.4583333333333,528.328125,928.5416666666666L528.328125,930.625" style="fill: none;"/><defs><marker id="arrowhead70" viewBox="0 0 10 10" refX="9" refY="5" markerUnits="strokeWidth" markerWidth="8" markerHeight="6" orient="auto"><path d="M 0 0 L 10 5 L 0 10 z"/></marker></defs></g><g class="edge"><path class="path" marker-end="url(#arrowhead71)" d="M528.328125,967.6875L528.328125,969.7708333333333C528.328125,971.8541666666666,528.328125,976.0208333333333,528.328125,980.1874999999999C528.328125,984.3541666666665,528.328125,988.5208333333333,528.328125,990.6041666666666L528.328125,992.6875" style="fill: none;"/><defs><marker id="arrowhead71" viewBox="0 0 10 10" refX="9" refY="5" markerUnits="strokeWidth" markerWidth="8" markerHeight="6" orient="auto"><path d="M 0 0 L 10 5 L 0 10 z"/></marker></defs></g><g class="edge"><path class="path" marker-end="url(#arrowhead72)" d="M473.96875,1019.6946641673863L449.85937499999994,1023.4538868061552C425.74999999999994,1027.2131094449242,377.53125,1034.731554722462,353.421875,1040.5741106945643C329.3125,1046.4166666666665,329.3125,1050.5833333333333,329.3125,1052.6666666666667L329.3125,1054.75" style="fill: none;"/><defs><marker id="arrowhead72" viewBox="0 0 10 10" refX="9" refY="5" markerUnits="strokeWidth" markerWidth="8" markerHeight="6" orient="auto"><path d="M 0 0 L 10 5 L 0 10 z"/></marker></defs></g><g class="edge"><path class="path" marker-end="url(#arrowhead73)" d="M329.3125,1091.8125L329.3125,1093.8958333333333C329.3125,1095.9791666666665,329.3125,1100.1458333333333,352.21875,1105.8007936196382C375.125,1111.4557539059433,420.93749999999994,1118.5990078118866,443.84375,1122.170634764858L466.75,1125.74226171783" style="fill: none;"/><defs><marker id="arrowhead73" viewBox="0 0 10 10" refX="9" refY="5" markerUnits="strokeWidth" markerWidth="8" markerHeight="6" orient="auto"><path d="M 0 0 L 10 5 L 0 10 z"/></marker></defs></g><g class="edge"><path class="path" marker-end="url(#arrowhead74)" d="M466.75,1145.846962629364L446.69140624999994,1149.2683021911366C426.63281249999994,1152.6896417529092,386.515625,1159.5323208764546,366.45703125,1168.1255354382272C346.3984375,1176.71875,346.3984375,1187.0625,346.3984375,1197.4062499999998C346.3984375,1207.75,346.3984375,1218.09375,346.3984375,1228.4322916666665C346.3984375,1238.7708333333333,346.3984375,1249.1041666666665,346.3984375,1259.4375C346.3984375,1269.7708333333333,346.3984375,1280.1041666666665,346.3984375,1290.4374999999998C346.3984375,1300.7708333333333,346.3984375,1311.1041666666665,346.3984375,1321.4375C346.3984375,1331.7708333333333,346.3984375,1342.1041666666665,346.3984375,1352.4375C346.3984375,1362.7708333333333,346.3984375,1373.1041666666665,346.3984375,1383.4374999999998C346.3984375,1393.7708333333333,346.3984375,1404.1041666666665,346.3984375,1414.4375C346.3984375,1424.7708333333333,346.3984375,1435.1041666666665,346.3984375,1445.4375C346.3984375,1455.7708333333333,346.3984375,1466.1041666666665,346.3984375,1476.4427083333333C346.3984375,1486.78125,346.3984375,1497.125,346.3984375,1507.46875C346.3984375,1517.8125,346.3984375,1528.1562499999998,341.86828896022155,1535.4114583333333C337.3381404204431,1542.6666666666665,328.2778433408862,1546.8333333333333,323.74769480110774,1548.9166666666665L319.2175462613293,1551" style="fill: none;"/><defs><marker id="arrowhead74" viewBox="0 0 10 10" refX="9" refY="5" markerUnits="strokeWidth" markerWidth="8" markerHeight="6" orient="auto"><path d="M 0 0 L 10 5 L 0 10 z"/></marker></defs></g><g class="edge"><path class="path" marker-end="url(#arrowhead75)" d="M567.2381514350453,1153.875L571.6125220292045,1155.9583333333333C575.9868926233635,1158.0416666666665,584.7356338116817,1162.2083333333333,589.1100044058409,1166.375C593.484375,1170.5416666666665,593.484375,1174.7083333333333,593.484375,1176.7916666666667L593.484375,1178.875" style="fill: none;"/><defs><marker id="arrowhead75" viewBox="0 0 10 10" refX="9" refY="5" markerUnits="strokeWidth" markerWidth="8" markerHeight="6" orient="auto"><path d="M 0 0 L 10 5 L 0 10 z"/></marker></defs></g><g class="edge"><path class="path" marker-end="url(#arrowhead76)" d="M589.90625,1121.8774551973793L603.29296875,1118.9499626644827C616.6796875,1116.022470131586,643.453125,1110.167485065793,656.83984375,1102.0681175328964C670.2265625,1093.96875,670.2265625,1083.625,670.2265625,1073.2812499999998C670.2265625,1062.9375,670.2265625,1052.59375,655.63671875,1044.231275463855C641.046875,1035.86880092771,611.8671875,1029.4876018554203,597.27734375,1026.2970023192754L582.6875,1023.1064027831305" style="fill: none;"/><defs><marker id="arrowhead76" viewBox="0 0 10 10" refX="9" refY="5" markerUnits="strokeWidth" markerWidth="8" markerHeight="6" orient="auto"><path d="M 0 0 L 10 5 L 0 10 z"/></marker></defs></g><g class="edge"><path class="path" marker-end="url(#arrowhead77)" d="M278.921875,1588.0625L278.921875,1590.145833333333C278.921875,1592.2291666666665,278.921875,1596.395833333333,278.921875,1600.5624999999998C278.921875,1604.7291666666665,278.921875,1608.8958333333333,278.921875,1610.9791666666665L278.921875,1613.0625" style="fill: none;"/><defs><marker id="arrowhead77" viewBox="0 0 10 10" refX="9" refY="5" markerUnits="strokeWidth" markerWidth="8" markerHeight="6" orient="auto"><path d="M 0 0 L 10 5 L 0 10 z"/></marker></defs></g><g class="edge"><path class="path" marker-end="url(#arrowhead78)" d="M593.484375,1215.9375L593.484375,1218.0208333333333C593.484375,1220.1041666666665,593.484375,1224.2708333333333,593.484375,1228.4375C593.484375,1232.6041666666665,593.484375,1236.7708333333333,593.484375,1238.8541666666667L593.484375,1240.9375" style="fill: none;"/><defs><marker id="arrowhead78" viewBox="0 0 10 10" refX="9" refY="5" markerUnits="strokeWidth" markerWidth="8" markerHeight="6" orient="auto"><path d="M 0 0 L 10 5 L 0 10 z"/></marker></defs></g><g class="edge"><path class="path" marker-end="url(#arrowhead79)" d="M593.484375,1277.9375L593.484375,1280.0208333333333C593.484375,1282.1041666666665,593.484375,1286.2708333333333,593.484375,1290.4375C593.484375,1294.6041666666665,593.484375,1298.7708333333333,593.484375,1300.8541666666667L593.484375,1302.9375" style="fill: none;"/><defs><marker id="arrowhead79" viewBox="0 0 10 10" refX="9" refY="5" markerUnits="strokeWidth" markerWidth="8" markerHeight="6" orient="auto"><path d="M 0 0 L 10 5 L 0 10 z"/></marker></defs></g><g class="edge"><path class="path" marker-end="url(#arrowhead80)" d="M558.605720766129,1339.9375L554.6779443884409,1342.0208333333333C550.7501680107526,1344.1041666666665,542.8946152553763,1348.2708333333333,538.9668388776881,1352.4375C535.0390625,1356.6041666666665,535.0390625,1360.7708333333333,535.0390625,1362.8541666666665L535.0390625,1364.9375" style="fill: none;"/><defs><marker id="arrowhead80" viewBox="0 0 10 10" refX="9" refY="5" markerUnits="strokeWidth" markerWidth="8" markerHeight="6" orient="auto"><path d="M 0 0 L 10 5 L 0 10 z"/></marker></defs></g><g class="edge"><path class="path" marker-end="url(#arrowhead81)" d="M639.2821320564516,1339.9375L644.4395371303764,1342.0208333333333C649.5969422043011,1344.1041666666665,659.9117523521505,1348.2708333333333,665.0691574260753,1355.5208333333335C670.2265625,1362.7708333333333,670.2265625,1373.1041666666665,670.2265625,1383.4374999999998C670.2265625,1393.7708333333333,670.2265625,1404.1041666666665,670.2265625,1414.4375C670.2265625,1424.7708333333333,670.2265625,1435.1041666666665,670.2265625,1445.4375C670.2265625,1455.7708333333333,670.2265625,1466.1041666666665,670.2265625,1476.4427083333333C670.2265625,1486.78125,670.2265625,1497.125,670.2265625,1507.46875C670.2265625,1517.8125,670.2265625,1528.1562499999998,613.83984375,1537.7997053876254C557.453125,1547.4431607752508,444.6796875,1556.3863215505019,388.29296874999994,1560.8579019381273L331.90625,1565.3294823257531" style="fill: none;"/><defs><marker id="arrowhead81" viewBox="0 0 10 10" refX="9" refY="5" markerUnits="strokeWidth" markerWidth="8" markerHeight="6" orient="auto"><path d="M 0 0 L 10 5 L 0 10 z"/></marker></defs></g><g class="edge"><path class="path" marker-end="url(#arrowhead82)" d="M498.1929183467742,1401.9375L494.0435777889785,1404.0208333333333C489.8942372311828,1406.1041666666665,481.5955561155914,1410.2708333333333,477.4462155577957,1414.4375C473.296875,1418.6041666666665,473.296875,1422.7708333333333,473.296875,1424.8541666666667L473.296875,1426.9375" style="fill: none;"/><defs><marker id="arrowhead82" viewBox="0 0 10 10" refX="9" refY="5" markerUnits="strokeWidth" markerWidth="8" markerHeight="6" orient="auto"><path d="M 0 0 L 10 5 L 0 10 z"/></marker></defs></g><g class="edge"><path class="path" marker-end="url(#arrowhead83)" d="M473.296875,1463.9375L473.296875,1466.0208333333333C473.296875,1468.1041666666665,473.296875,1472.2708333333333,477.44203696710304,1476.4375C481.58719893420607,1480.6041666666665,489.8775228684122,1484.7708333333333,494.02268483551524,1486.8541666666667L498.1678468026183,1488.9375" style="fill: none;"/><defs><marker id="arrowhead83" viewBox="0 0 10 10" refX="9" refY="5" markerUnits="strokeWidth" markerWidth="8" markerHeight="6" orient="auto"><path d="M 0 0 L 10 5 L 0 10 z"/></marker></defs></g><g class="edge"><path class="path" marker-end="url(#arrowhead84)" d="M512.0942771273917,1526L509.514762189493,1528.083333333333C506.93524725159443,1530.1666666666665,501.7762173757972,1534.333333333333,499.1967024378986,1541.5885416666665C496.6171875,1548.8437499999998,496.6171875,1559.1874999999998,496.6171875,1569.5312499999995C496.6171875,1579.8749999999998,496.6171875,1590.2187499999998,496.6171875,1597.473958333333C496.6171875,1604.7291666666665,496.6171875,1608.8958333333333,496.6171875,1610.9791666666665L496.6171875,1613.0625" style="fill: none;"/><defs><marker id="arrowhead84" viewBox="0 0 10 10" refX="9" refY="5" markerUnits="strokeWidth" markerWidth="8" markerHeight="6" orient="auto"><path d="M 0 0 L 10 5 L 0 10 z"/></marker></defs></g><g class="edge"><path class="path" marker-end="url(#arrowhead85)" d="M571.9102781973817,1526L576.0554401644847,1528.083333333333C580.2006021315877,1530.1666666666665,588.4909260657938,1534.333333333333,548.4902546995636,1540.7264353831783C508.48958333333326,1547.1195374330234,420.19791666666663,1555.739074866047,376.0520833333333,1560.0488435825587L331.90625,1564.358612299071" style="fill: none;"/><defs><marker id="arrowhead85" viewBox="0 0 10 10" refX="9" refY="5" markerUnits="strokeWidth" markerWidth="8" markerHeight="6" orient="auto"><path d="M 0 0 L 10 5 L 0 10 z"/></marker></defs></g><g class="edge"><path class="path" marker-end="url(#arrowhead86)" d="M571.9102781973817,1488.9375L576.0554401644847,1486.8541666666667C580.2006021315877,1484.7708333333333,588.4909260657938,1480.6041666666665,592.6360880328969,1473.3541666666665C596.78125,1466.1041666666665,596.78125,1455.7708333333333,596.7812499999999,1445.4375C596.78125,1435.1041666666665,596.78125,1424.7708333333333,592.6319094422042,1417.5208333333333C588.4825688844086,1410.2708333333333,580.1838877688172,1406.1041666666665,576.0345472110215,1404.0208333333333L571.8852066532259,1401.9375" style="fill: none;"/><defs><marker id="arrowhead86" viewBox="0 0 10 10" refX="9" refY="5" markerUnits="strokeWidth" markerWidth="8" markerHeight="6" orient="auto"><path d="M 0 0 L 10 5 L 0 10 z"/></marker></defs></g><g class="edge"><path class="path" marker-end="url(#arrowhead87)" d="M278.921875,1650.125L278.921875,1652.208333333333C278.921875,1654.2916666666665,278.921875,1658.458333333333,278.3909776881093,1662.1887351057458C277.86008037621855,1665.9191368781583,276.79828575243715,1669.2132737563168,276.2673884405465,1670.8603421953958L275.73649112865576,1672.5074106344753" style="fill: none;"/><defs><marker id="arrowhead87" viewBox="0 0 10 10" refX="9" refY="5" markerUnits="strokeWidth" markerWidth="8" markerHeight="6" orient="auto"><path d="M 0 0 L 10 5 L 0 10 z"/></marker></defs></g><g class="edge"><path class="path" marker-end="url(#arrowhead88)" d="M496.6171875,1650.125L496.6171875,1652.208333333333C496.6171875,1654.2916666666665,496.6171875,1658.458333333333,462.3333821938963,1665.20945898943C428.0495768877925,1671.9605846455268,359.481966275585,1681.2961692910537,325.1981609694813,1685.963961613817L290.9143556633776,1690.631753936581" style="fill: none;"/><defs><marker id="arrowhead88" viewBox="0 0 10 10" refX="9" refY="5" markerUnits="strokeWidth" markerWidth="8" markerHeight="6" orient="auto"><path d="M 0 0 L 10 5 L 0 10 z"/></marker></defs></g></g></g><style xmlns="http://www.w3.org/1999/xhtml">.node &gt; .shape {stroke: #555555;stroke-width: 0.6px;fill: #FFFFFF;} path {stroke: #555;background-color: #555;stroke-width: 1px;} .node.state.NotYetStarted &gt; .shape,.node.state.Container &gt; .shape {stroke-dasharray: 5 2;} .node.state.Failed &gt; .shape,rect.legend.Failed {fill: #DE322F;} .node.state.CaughtError &gt; .shape,rect.legend.CaughtError {fill: #FFA500;} .node.state.Succeeded &gt; .shape,rect.legend.Succeeded {fill: #2BD62E;} .node.state.InProgress &gt; .shape,rect.legend.InProgress {fill: #53c9ed;} .node.state.Cancelled &gt; .shape,rect.legend.Cancelled {fill: #dddddd;} .node.anchor &gt; .shape {fill: #FFDA75;} .node.state.hovered:not(.selected):not(.NotYetStarted) &gt; .shape,.node.selected &gt; .shape {stroke: #555555;stroke-width: 2px;} .node.state.Container.Failed &gt; .shape {fill: #EE9592;} .node.state.Container.CaughtError &gt; .shape {fill: #FFD27F;} .node.state.Container.Succeeded &gt; .shape {fill: #91EA9A;} .node.state.Container.InProgress &gt; .shape {fill :#A9E4F7;} .node.state.Container.Cancelled &gt; .shape {fill: #EEEEEE;} marker {fill: #555555;} .node.anchor,.node.state.NotYetStarted {cursor: default;} .node.state {cursor: pointer;} tspan .label {font-weight: normal;font-size: 12px;text-shadow: none;} </style></svg>