<!DOCTYPE svg PUBLIC "-//W3C//DTD SVG 1.1//EN" "http://www.w3.org/Graphics/SVG/1.1/DTD/svg11.dtd">
<svg xmlns="http://www.w3.org/2000/svg" id="sfn-svg" class="sfn-workflow-graph" width="1150" height="1713">  
<g transform="translate(12,19.875)"><g class="nodes"><g class="node-container" transform="translate(672.3749961853027,19)"><g class="node anchor"><circle class="shape" x="-16.875" y="-9" r="26.875"/><text class="label"><tspan xml:space="preserve" text-anchor="middle" alignment-baseline="central">Start</tspan></text></g></g><g class="node-container" transform="translate(271.91666984558105,1657)"><g class="node anchor"><circle class="shape" x="-13.175000190734863" y="-9" r="23.175000190734863"/><text class="label"><tspan xml:space="preserve" text-anchor="middle" alignment-baseline="central">End</tspan></text></g></g><g class="node-container" transform="translate(672.3749961853027,82)"><g class="node state Task NotYetStarted"><rect class="shape" rx="5" ry="5" x="-52.94166564941406" y="-19" width="105.88333129882812" height="38"/><text class="label"><tspan xml:space="preserve" text-anchor="middle" alignment-baseline="central">Find Instance</tspan></text></g></g><g class="node-container" transform="translate(672.3749961853027,145)"><g class="node state Choice NotYetStarted"><rect class="shape" rx="5" ry="5" x="-62.150001525878906" y="-19" width="124.30000305175781" height="38"/><text class="label"><tspan xml:space="preserve" text-anchor="middle" alignment-baseline="central">Instance Found?</tspan></text></g></g><g class="node-container" transform="translate(89.80833435058594,1594)"><g class="node state Succeed NotYetStarted"><rect class="shape" rx="5" ry="5" x="-89.80833435058594" y="-19" width="179.61666870117188" height="38"/><text class="label"><tspan xml:space="preserve" text-anchor="middle" alignment-baseline="central">Not A Migration Instance</tspan></text></g></g><g class="node-container" transform="translate(994.2833271026611,208)"><g class="node state Task NotYetStarted"><rect class="shape" rx="5" ry="5" x="-67.45833206176758" y="-19" width="134.91666412353516" height="38"/><text class="label"><tspan xml:space="preserve" text-anchor="middle" alignment-baseline="central">Check/Build Repo</tspan></text></g></g><g class="node-container" transform="translate(994.2833271026611,271)"><g class="node state Task NotYetStarted"><rect class="shape" rx="5" ry="5" x="-72.4000015258789" y="-19" width="144.8000030517578" height="38"/><text class="label"><tspan xml:space="preserve" text-anchor="middle" alignment-baseline="central">Get Instance Status</tspan></text></g></g><g class="node-container" transform="translate(943.8833274841309,334)"><g class="node state Choice NotYetStarted"><rect class="shape" rx="5" ry="5" x="-61.55833435058594" y="-19" width="123.11666870117188" height="38"/><text class="label"><tspan xml:space="preserve" text-anchor="middle" alignment-baseline="central">Instance Ready?</tspan></text></g></g><g class="node-container" transform="translate(714.366662979126,397)"><g class="node state Wait NotYetStarted"><rect class="shape" rx="5" ry="5" x="-74.875" y="-19" width="149.75" height="38"/><text class="label"><tspan xml:space="preserve" text-anchor="middle" alignment-baseline="central">Instance Ready Wait</tspan></text></g></g><g class="node-container" transform="translate(281.9083366394043,1531)"><g class="node state Task NotYetStarted"><rect class="shape" rx="5" ry="5" x="-53.974998474121094" y="-19" width="107.94999694824219" height="38"/><text class="label"><tspan xml:space="preserve" text-anchor="middle" alignment-baseline="central">Notify Failure</tspan></text></g></g><g class="node-container" transform="translate(1059.6833267211914,397)"><g class="node state Wait NotYetStarted"><rect class="shape" rx="5" ry="5" x="-65.79999923706055" y="-19" width="131.5999984741211" height="38"/><text class="label"><tspan xml:space="preserve" text-anchor="middle" alignment-baseline="central">Wait For Instance</tspan></text></g></g><g class="node-container" transform="translate(714.366662979126,460)"><g class="node state Task NotYetStarted"><rect class="shape" rx="5" ry="5" x="-69.90833282470703" y="-19" width="139.81666564941406" height="38"/><text class="label"><tspan xml:space="preserve" text-anchor="middle" alignment-baseline="central">Create Root Image</tspan></text></g></g><g class="node-container" transform="translate(714.366662979126,523)"><g class="node state Task NotYetStarted"><rect class="shape" rx="5" ry="5" x="-82.5" y="-19" width="165" height="38"/><text class="label"><tspan xml:space="preserve" text-anchor="middle" alignment-baseline="central">Get Root Image Status</tspan></text></g></g><g class="node-container" transform="translate(625.4291648864746,586)"><g class="node state Choice NotYetStarted"><rect class="shape" rx="5" ry="5" x="-83.11666870117188" y="-19" width="166.23333740234375" height="38"/><text class="label"><tspan xml:space="preserve" text-anchor="middle" alignment-baseline="central">Root Image Complete?</tspan></text></g></g><g class="node-container" transform="translate(612.5499973297119,649)"><g class="node state Task NotYetStarted"><rect class="shape" rx="5" ry="5" x="-87.73332977294922" y="-19" width="175.46665954589844" height="38"/><text class="label"><tspan xml:space="preserve" text-anchor="middle" alignment-baseline="central">Create Snapshots Image</tspan></text></g></g><g class="node-container" transform="translate(829.6833267211914,649)"><g class="node state Wait NotYetStarted"><rect class="shape" rx="5" ry="5" x="-75.9000015258789" y="-19" width="151.8000030517578" height="38"/><text class="label"><tspan xml:space="preserve" text-anchor="middle" alignment-baseline="central">Wait For Root Image</tspan></text></g></g><g class="node-container" transform="translate(612.5499973297119,712)"><g class="node state Task NotYetStarted"><rect class="shape" rx="5" ry="5" x="-100.32499694824219" y="-19" width="200.64999389648438" height="38"/><text class="label"><tspan xml:space="preserve" text-anchor="middle" alignment-baseline="central">Get Snapshots Image Status</tspan></text></g></g><g class="node-container" transform="translate(498.4333305358887,775)"><g class="node state Choice NotYetStarted"><rect class="shape" rx="5" ry="5" x="-100.94166564941406" y="-19" width="201.88333129882812" height="38"/><text class="label"><tspan xml:space="preserve" text-anchor="middle" alignment-baseline="central">Snapshots Image Complete?</tspan></text></g></g><g class="node-container" transform="translate(533.3041648864746,838)"><g class="node state Task NotYetStarted"><rect class="shape" rx="5" ry="5" x="-50.525001525878906" y="-19" width="101.05000305175781" height="38"/><text class="label"><tspan xml:space="preserve" text-anchor="middle" alignment-baseline="central">Share Image</tspan></text></g></g><g class="node-container" transform="translate(718.9541625976562,838)"><g class="node state Wait NotYetStarted"><rect class="shape" rx="5" ry="5" x="-93.7249984741211" y="-19" width="187.4499969482422" height="38"/><text class="label"><tspan xml:space="preserve" text-anchor="middle" alignment-baseline="central">Wait For Snapshots Image</tspan></text></g></g><g class="node-container" transform="translate(533.3041648864746,901)"><g class="node state Task NotYetStarted"><rect class="shape" rx="5" ry="5" x="-48.43333435058594" y="-19" width="96.86666870117188" height="38"/><text class="label"><tspan xml:space="preserve" text-anchor="middle" alignment-baseline="central">Copy Image</tspan></text></g></g><g class="node-container" transform="translate(533.3041648864746,964)"><g class="node state Wait NotYetStarted"><rect class="shape" rx="5" ry="5" x="-55.34166717529297" y="-19" width="110.68333435058594" height="38"/><text class="label"><tspan xml:space="preserve" text-anchor="middle" alignment-baseline="central">Wait For Copy</tspan></text></g></g><g class="node-container" transform="translate(332.3000011444092,1027)"><g class="node state Task NotYetStarted"><rect class="shape" rx="5" ry="5" x="-61.94166564941406" y="-19" width="123.88333129882812" height="38"/><text class="label"><tspan xml:space="preserve" text-anchor="middle" alignment-baseline="central">Get Copy Status</tspan></text></g></g><g class="node-container" transform="translate(533.3041648864746,1090)"><g class="node state Choice NotYetStarted"><rect class="shape" rx="5" ry="5" x="-62.55833435058594" y="-19" width="125.11666870117188" height="38"/><text class="label"><tspan xml:space="preserve" text-anchor="middle" alignment-baseline="central">Copy Complete?</tspan></text></g></g><g class="node-container" transform="translate(598.9499969482422,1153)"><g class="node state Task NotYetStarted"><rect class="shape" rx="5" ry="5" x="-58.400001525878906" y="-19" width="116.80000305175781" height="38"/><text class="label"><tspan xml:space="preserve" text-anchor="middle" alignment-baseline="central">Image Cleanup</tspan></text></g></g><g class="node-container" transform="translate(281.9083366394043,1594)"><g class="node state Fail NotYetStarted"><rect class="shape" rx="5" ry="5" x="-62.29166793823242" y="-19" width="124.58333587646484" height="38"/><text class="label"><tspan xml:space="preserve" text-anchor="middle" alignment-baseline="central">Migration Failed</tspan></text></g></g><g class="node-container" transform="translate(598.9499969482422,1216)"><g class="node state Task NotYetStarted"><rect class="shape" rx="5" ry="5" x="-67.44166564941406" y="-19" width="134.88333129882812" height="38"/><text class="label"><tspan xml:space="preserve" text-anchor="middle" alignment-baseline="central">Launch Terraform</tspan></text></g></g><g class="node-container" transform="translate(598.9499969482422,1279)"><g class="node state Choice NotYetStarted"><rect class="shape" rx="5" ry="5" x="-96.29166412353516" y="-19" width="192.5833282470703" height="38"/><text class="label"><tspan xml:space="preserve" text-anchor="middle" alignment-baseline="central">Launch Terraform Success?</tspan></text></g></g><g class="node-container" transform="translate(540.0083312988281,1342)"><g class="node state Wait NotYetStarted"><rect class="shape" rx="5" ry="5" x="-82.88333129882812" y="-19" width="165.76666259765625" height="38"/><text class="label"><tspan xml:space="preserve" text-anchor="middle" alignment-baseline="central">Wait For Final Instance</tspan></text></g></g><g class="node-container" transform="translate(477.7666664123535,1405)"><g class="node state Task NotYetStarted"><rect class="shape" rx="5" ry="5" x="-89.48332977294922" y="-19" width="178.96665954589844" height="38"/><text class="label"><tspan xml:space="preserve" text-anchor="middle" alignment-baseline="central">Get Final Instance Status</tspan></text></g></g><g class="node-container" transform="translate(540.0083312988281,1468)"><g class="node state Choice NotYetStarted"><rect class="shape" rx="5" ry="5" x="-78.64167022705078" y="-19" width="157.28334045410156" height="38"/><text class="label"><tspan xml:space="preserve" text-anchor="middle" alignment-baseline="central">Final Instance Ready?</tspan></text></g></g><g class="node-container" transform="translate(501.58333587646484,1594)"><g class="node state Succeed NotYetStarted"><rect class="shape" rx="5" ry="5" x="-69.82500076293945" y="-19" width="139.6500015258789" height="38"/><text class="label"><tspan xml:space="preserve" text-anchor="middle" alignment-baseline="central">Migration Finished</tspan></text></g></g></g><g class="edges"><g class="edge"><path class="path" style="fill: none;" marker-end="url(#arrowhead44)" d="M672.3749961853027,101L672.3749961853027,103.08333333333331C672.3749961853027,105.16666666666666,672.3749961853027,109.33333333333331,672.3749961853027,113.49999999999999C672.3749961853027,117.66666666666666,672.3749961853027,121.83333333333333,672.3749961853027,123.91666666666666L672.3749961853027,126"/><defs><marker id="arrowhead44" viewBox="0 0 10 10" refX="9" refY="5" markerUnits="strokeWidth" markerWidth="8" markerHeight="6" orient="auto"><path d="M 0 0 L 10 5 L 0 10 z"/></marker></defs></g><g class="edge"><path class="path" style="fill: none;" marker-end="url(#arrowhead45)" d="M672.3749961853027,45.875L672.3749961853027,46.64583333333333C672.3749961853027,47.416666666666664,672.3749961853027,48.95833333333333,672.3749961853027,51.8125C672.3749961853027,54.666666666666664,672.3749961853027,58.83333333333333,672.3749961853027,60.916666666666664L672.3749961853027,63"/><defs><marker id="arrowhead45" viewBox="0 0 10 10" refX="9" refY="5" markerUnits="strokeWidth" markerWidth="8" markerHeight="6" orient="auto"><path d="M 0 0 L 10 5 L 0 10 z"/></marker></defs></g><g class="edge"><path class="path" style="fill: none;" marker-end="url(#arrowhead46)" d="M610.2249946594238,148.36051678944276L523.4888846079508,153.05043065786896C436.75277455647785,157.74034452629516,263.28055445353186,167.12017226314757,176.5444444020589,177.06008613157377C89.80833435058594,187,89.80833435058594,197.5,89.80833435058594,207.99999999999997C89.80833435058594,218.5,89.80833435058594,229,89.80833435058594,239.49999999999997C89.80833435058594,250,89.80833435058594,260.5,89.80833435058594,271C89.80833435058594,281.5,89.80833435058594,292,89.80833435058594,302.5C89.80833435058594,313,89.80833435058594,323.5,89.80833435058594,334C89.80833435058594,344.5,89.80833435058594,355,89.80833435058594,365.5C89.80833435058594,376,89.80833435058594,386.49999999999994,89.80833435058594,397C89.80833435058594,407.49999999999994,89.80833435058594,417.99999999999994,89.80833435058594,428.4999999999999C89.80833435058594,438.99999999999994,89.80833435058594,449.49999999999994,89.80833435058594,459.9999999999999C89.80833435058594,470.49999999999994,89.80833435058594,480.99999999999994,89.80833435058594,491.4999999999999C89.80833435058594,501.99999999999994,89.80833435058594,512.5,89.80833435058594,522.9999999999999C89.80833435058594,533.5,89.80833435058594,544,89.80833435058594,554.4999999999999C89.80833435058594,565,89.80833435058594,575.5,89.80833435058594,585.9999999999999C89.80833435058594,596.5,89.80833435058594,607,89.80833435058594,617.4999999999999C89.80833435058594,628,89.80833435058594,638.5,89.80833435058594,648.9999999999999C89.80833435058594,659.5,89.80833435058594,670,89.80833435058594,680.4999999999999C89.80833435058594,691,89.80833435058594,701.5,89.80833435058594,711.9999999999999C89.80833435058594,722.5,89.80833435058594,733,89.80833435058594,743.4999999999999C89.80833435058594,754,89.80833435058594,764.5,89.80833435058594,774.9999999999999C89.80833435058594,785.5,89.80833435058594,796,89.80833435058594,806.4999999999999C89.80833435058594,817,89.80833435058594,827.5,89.80833435058594,837.9999999999999C89.80833435058594,848.5,89.80833435058594,859,89.80833435058594,869.4999999999999C89.80833435058594,880,89.80833435058594,890.5,89.80833435058594,900.9999999999999C89.80833435058594,911.5,89.80833435058594,922,89.80833435058594,932.4999999999999C89.80833435058594,943,89.80833435058594,953.5,89.80833435058594,963.9999999999999C89.80833435058594,974.5,89.80833435058594,985,89.80833435058594,995.4999999999999C89.80833435058594,1006,89.80833435058594,1016.5,89.80833435058594,1027C89.80833435058594,1037.5,89.80833435058594,1048,89.80833435058594,1058.5C89.80833435058594,1069,89.80833435058594,1079.5,89.80833435058594,1090C89.80833435058594,1100.5,89.80833435058594,1111,89.80833435058594,1121.5C89.80833435058594,1132,89.80833435058594,1142.5,89.80833435058594,1153C89.80833435058594,1163.5,89.80833435058594,1174,89.80833435058594,1184.5C89.80833435058594,1195,89.80833435058594,1205.5,89.80833435058594,1216C89.80833435058594,1226.5,89.80833435058594,1237,89.80833435058594,1247.5C89.80833435058594,1258,89.80833435058594,1268.5,89.80833435058594,1279C89.80833435058594,1289.5,89.80833435058594,1300,89.80833435058594,1310.5C89.80833435058594,1321,89.80833435058594,1331.5,89.80833435058594,1342C89.80833435058594,1352.5,89.80833435058594,1363,89.80833435058594,1373.5C89.80833435058594,1384,89.80833435058594,1394.5,89.80833435058594,1405C89.80833435058594,1415.5,89.80833435058594,1426,89.80833435058594,1436.5C89.80833435058594,1447,89.80833435058594,1457.5,89.80833435058594,1468C89.80833435058594,1478.5,89.80833435058594,1489,89.80833435058594,1499.5C89.80833435058594,1510,89.80833435058594,1520.5,89.80833435058594,1531C89.80833435058594,1541.5,89.80833435058594,1551.9999999999998,89.80833435058594,1559.3333333333333C89.80833435058594,1566.6666666666665,89.80833435058594,1570.8333333333333,89.80833435058594,1572.9166666666665L89.80833435058594,1575"/><defs><marker id="arrowhead46" viewBox="0 0 10 10" refX="9" refY="5" markerUnits="strokeWidth" markerWidth="8" markerHeight="6" orient="auto"><path d="M 0 0 L 10 5 L 0 10 z"/></marker></defs></g><g class="edge"><path class="path" style="fill: none;" marker-end="url(#arrowhead47)" d="M734.5249977111816,151.08162281009055L777.8180526097615,155.31801900840878C821.1111075083414,159.55441520672701,907.6972173055012,168.0272076033635,950.9902722040812,174.34693713501508C994.2833271026611,180.66666666666666,994.2833271026611,184.83333333333331,994.283327102661,186.91666666666666L994.2833271026611,189"/><defs><marker id="arrowhead47" viewBox="0 0 10 10" refX="9" refY="5" markerUnits="strokeWidth" markerWidth="8" markerHeight="6" orient="auto"><path d="M 0 0 L 10 5 L 0 10 z"/></marker></defs></g><g class="edge"><path class="path" style="fill: none;" marker-end="url(#arrowhead48)" d="M89.80833435058594,1613L89.80833435058594,1615.083333333333C89.80833435058594,1617.1666666666665,89.80833435058594,1621.333333333333,116.3537414067998,1628.0083308537992C142.89914846301366,1634.6833283742653,195.98996257544138,1643.866656748531,222.53536963165524,1648.458320935664L249.0807766878691,1653.049985122797"/><defs><marker id="arrowhead48" viewBox="0 0 10 10" refX="9" refY="5" markerUnits="strokeWidth" markerWidth="8" markerHeight="6" orient="auto"><path d="M 0 0 L 10 5 L 0 10 z"/></marker></defs></g><g class="edge"><path class="path" style="fill: none;" marker-end="url(#arrowhead49)" d="M994.2833271026611,227L994.283327102661,229.0833333333333C994.2833271026611,231.16666666666663,994.2833271026611,235.33333333333331,994.283327102661,239.5C994.2833271026611,243.66666666666666,994.2833271026611,247.83333333333331,994.283327102661,249.91666666666666L994.2833271026611,252"/><defs><marker id="arrowhead49" viewBox="0 0 10 10" refX="9" refY="5" markerUnits="strokeWidth" markerWidth="8" markerHeight="6" orient="auto"><path d="M 0 0 L 10 5 L 0 10 z"/></marker></defs></g><g class="edge"><path class="path" style="fill: none;" marker-end="url(#arrowhead50)" d="M963.883327332754,290L960.54999402465,292.0833333333333C957.2166607165462,294.16666666666663,950.5499941003385,298.3333333333333,947.2166607922345,302.5C943.8833274841307,306.66666666666663,943.8833274841307,310.8333333333333,943.8833274841306,312.9166666666667L943.8833274841309,315"/><defs><marker id="arrowhead50" viewBox="0 0 10 10" refX="9" refY="5" markerUnits="strokeWidth" markerWidth="8" markerHeight="6" orient="auto"><path d="M 0 0 L 10 5 L 0 10 z"/></marker></defs></g><g class="edge"><path class="path" style="fill: none;" marker-end="url(#arrowhead51)" d="M882.3249931335449,342.44856967673985L854.3319381078084,346.29047473061655C826.3388830820719,350.1323797844932,770.3527730305989,357.8161898922466,742.3597180048624,363.7414282794566C714.366662979126,369.66666666666663,714.366662979126,373.8333333333333,714.366662979126,375.9166666666667L714.366662979126,378"/><defs><marker id="arrowhead51" viewBox="0 0 10 10" refX="9" refY="5" markerUnits="strokeWidth" markerWidth="8" markerHeight="6" orient="auto"><path d="M 0 0 L 10 5 L 0 10 z"/></marker></defs></g><g class="edge"><path class="path" style="fill: none;" marker-end="url(#arrowhead52)" d="M945.1625597514803,353L945.3028264474616,355.0833333333333C945.4430931434429,357.16666666666663,945.7236265354055,361.3333333333333,945.8638932313868,368.66666666666663C946.0041599273682,376,946.0041599273682,386.49999999999994,946.004159927368,397C946.0041599273682,407.49999999999994,946.0041599273682,417.99999999999994,946.004159927368,428.4999999999999C946.0041599273682,438.99999999999994,946.0041599273682,449.49999999999994,946.004159927368,459.9999999999999C946.0041599273682,470.49999999999994,946.0041599273682,480.99999999999994,946.004159927368,491.4999999999999C946.0041599273682,501.99999999999994,946.0041599273682,512.5,946.004159927368,522.9999999999999C946.0041599273682,533.5,946.0041599273682,544,946.004159927368,554.4999999999999C946.0041599273682,565,946.0041599273682,575.5,946.004159927368,585.9999999999999C946.0041599273682,596.5,946.0041599273682,607,946.004159927368,617.4999999999999C946.0041599273682,628,946.0041599273682,638.5,946.004159927368,648.9999999999999C946.0041599273682,659.5,946.0041599273682,670,946.004159927368,680.4999999999999C946.0041599273682,691,946.0041599273682,701.5,946.004159927368,711.9999999999999C946.0041599273682,722.5,946.0041599273682,733,946.004159927368,743.4999999999999C946.0041599273682,754,946.0041599273682,764.5,946.004159927368,774.9999999999999C946.0041599273682,785.5,946.0041599273682,796,946.004159927368,806.4999999999999C946.0041599273682,817,946.0041599273682,827.5,946.004159927368,837.9999999999999C946.0041599273682,848.5,946.0041599273682,859,946.004159927368,869.4999999999999C946.0041599273682,880,946.0041599273682,890.5,946.004159927368,900.9999999999999C946.0041599273682,911.5,946.0041599273682,922,946.004159927368,932.4999999999999C946.0041599273682,943,946.0041599273682,953.5,946.004159927368,963.9999999999999C946.0041599273682,974.5,946.0041599273682,985,946.004159927368,995.4999999999999C946.0041599273682,1006,946.0041599273682,1016.5,946.004159927368,1027C946.0041599273682,1037.5,946.0041599273682,1048,946.004159927368,1058.5C946.0041599273682,1069,946.0041599273682,1079.5,946.004159927368,1090C946.0041599273682,1100.5,946.0041599273682,1111,946.004159927368,1121.5C946.0041599273682,1132,946.0041599273682,1142.5,946.004159927368,1153C946.0041599273682,1163.5,946.0041599273682,1174,946.004159927368,1184.5C946.0041599273682,1195,946.0041599273682,1205.5,946.004159927368,1216C946.0041599273682,1226.5,946.0041599273682,1237,946.004159927368,1247.5C946.0041599273682,1258,946.0041599273682,1268.5,946.004159927368,1279C946.0041599273682,1289.5,946.0041599273682,1300,946.004159927368,1310.5C946.0041599273682,1321,946.0041599273682,1331.5,946.004159927368,1342C946.0041599273682,1352.5,946.0041599273682,1363,946.004159927368,1373.5C946.0041599273682,1384,946.0041599273682,1394.5,946.004159927368,1405C946.0041599273682,1415.5,946.0041599273682,1426,946.004159927368,1436.5C946.0041599273682,1447,946.0041599273682,1457.5,946.004159927368,1468C946.0041599273682,1478.5,946.0041599273682,1489,844.3173557917277,1499.0733014242037C742.6305516560872,1509.1466028484078,539.2569433848063,1518.7932056968154,437.57013924916583,1523.6165071210194L335.8833351135254,1528.4398085452233"/><defs><marker id="arrowhead52" viewBox="0 0 10 10" refX="9" refY="5" markerUnits="strokeWidth" markerWidth="8" markerHeight="6" orient="auto"><path d="M 0 0 L 10 5 L 0 10 z"/></marker></defs></g><g class="edge"><path class="path" style="fill: none;" marker-end="url(#arrowhead53)" d="M983.330946301657,353L987.6563431018243,355.0833333333333C991.9817399019917,357.16666666666663,1000.6325335023264,361.3333333333333,1008.2912636105976,365.5C1015.9499937188688,369.66666666666663,1022.6166603350764,373.8333333333333,1025.9499936431803,375.9166666666667L1029.2833269512842,378"/><defs><marker id="arrowhead53" viewBox="0 0 10 10" refX="9" refY="5" markerUnits="strokeWidth" markerWidth="8" markerHeight="6" orient="auto"><path d="M 0 0 L 10 5 L 0 10 z"/></marker></defs></g><g class="edge"><path class="path" style="fill: none;" marker-end="url(#arrowhead54)" d="M1059.6833267211914,378L1059.6833267211914,375.9166666666667C1059.6833267211914,373.8333333333333,1059.6833267211914,369.66666666666663,1059.6833267211914,362.3333333333333C1059.6833267211914,355,1059.6833267211914,344.5,1059.6833267211914,334C1059.6833267211914,323.5,1059.6833267211914,313,1055.3579299210242,305.66666666666663C1051.0325331208567,298.3333333333333,1042.381739520522,294.16666666666663,1038.0563427203547,292.0833333333333L1033.7309459201874,290"/><defs><marker id="arrowhead54" viewBox="0 0 10 10" refX="9" refY="5" markerUnits="strokeWidth" markerWidth="8" markerHeight="6" orient="auto"><path d="M 0 0 L 10 5 L 0 10 z"/></marker></defs></g><g class="edge"><path class="path" style="fill: none;" marker-end="url(#arrowhead55)" d="M714.366662979126,416L714.366662979126,418.08333333333326C714.366662979126,420.16666666666663,714.366662979126,424.33333333333326,714.366662979126,428.49999999999994C714.366662979126,432.66666666666663,714.366662979126,436.8333333333333,714.366662979126,438.91666666666663L714.366662979126,441"/><defs><marker id="arrowhead55" viewBox="0 0 10 10" refX="9" refY="5" markerUnits="strokeWidth" markerWidth="8" markerHeight="6" orient="auto"><path d="M 0 0 L 10 5 L 0 10 z"/></marker></defs></g><g class="edge"><path class="path" style="fill: none;" marker-end="url(#arrowhead56)" d="M714.366662979126,479L714.366662979126,481.08333333333326C714.366662979126,483.16666666666663,714.366662979126,487.33333333333326,714.366662979126,491.49999999999994C714.366662979126,495.66666666666663,714.366662979126,499.8333333333333,714.366662979126,501.91666666666663L714.366662979126,504"/><defs><marker id="arrowhead56" viewBox="0 0 10 10" refX="9" refY="5" markerUnits="strokeWidth" markerWidth="8" markerHeight="6" orient="auto"><path d="M 0 0 L 10 5 L 0 10 z"/></marker></defs></g><g class="edge"><path class="path" style="fill: none;" marker-end="url(#arrowhead57)" d="M660.721822859749,542L654.8397131975365,544.0833333333333C648.9576035353241,546.1666666666666,637.1933842108994,550.3333333333333,631.3112745486869,554.5C625.4291648864746,558.6666666666666,625.4291648864746,562.8333333333333,625.4291648864745,564.9166666666666L625.4291648864746,567"/><defs><marker id="arrowhead57" viewBox="0 0 10 10" refX="9" refY="5" markerUnits="strokeWidth" markerWidth="8" markerHeight="6" orient="auto"><path d="M 0 0 L 10 5 L 0 10 z"/></marker></defs></g><g class="edge"><path class="path" style="fill: none;" marker-end="url(#arrowhead58)" d="M542.3124961853027,591.6724172473403L479.23819160461426,595.9770143727835C416.1638870239258,600.2816114982268,290.0152778625488,608.8908057491134,226.94097328186035,618.4454028745566C163.86666870117188,628,163.86666870117188,638.5,163.86666870117188,648.9999999999999C163.86666870117188,659.5,163.86666870117188,670,163.86666870117188,680.4999999999999C163.86666870117188,691,163.86666870117188,701.5,163.86666870117188,711.9999999999999C163.86666870117188,722.5,163.86666870117188,733,163.86666870117188,743.4999999999999C163.86666870117188,754,163.86666870117188,764.5,163.86666870117188,774.9999999999999C163.86666870117188,785.5,163.86666870117188,796,163.86666870117188,806.4999999999999C163.86666870117188,817,163.86666870117188,827.5,163.86666870117188,837.9999999999999C163.86666870117188,848.5,163.86666870117188,859,163.86666870117188,869.4999999999999C163.86666870117188,880,163.86666870117188,890.5,163.86666870117188,900.9999999999999C163.86666870117188,911.5,163.86666870117188,922,163.86666870117188,932.4999999999999C163.86666870117188,943,163.86666870117188,953.5,163.86666870117188,963.9999999999999C163.86666870117188,974.5,163.86666870117188,985,163.86666870117188,995.4999999999999C163.86666870117188,1006,163.86666870117188,1016.5,163.86666870117188,1027C163.86666870117188,1037.5,163.86666870117188,1048,163.86666870117188,1058.5C163.86666870117188,1069,163.86666870117188,1079.5,163.86666870117188,1090C163.86666870117188,1100.5,163.86666870117188,1111,163.86666870117188,1121.5C163.86666870117188,1132,163.86666870117188,1142.5,163.86666870117188,1153C163.86666870117188,1163.5,163.86666870117188,1174,163.86666870117188,1184.5C163.86666870117188,1195,163.86666870117188,1205.5,163.86666870117188,1216C163.86666870117188,1226.5,163.86666870117188,1237,163.86666870117188,1247.5C163.86666870117188,1258,163.86666870117188,1268.5,163.86666870117188,1279C163.86666870117188,1289.5,163.86666870117188,1300,163.86666870117188,1310.5C163.86666870117188,1321,163.86666870117188,1331.5,163.86666870117188,1342C163.86666870117188,1352.5,163.86666870117188,1363,163.86666870117188,1373.5C163.86666870117188,1384,163.86666870117188,1394.5,163.86666870117188,1405C163.86666870117188,1415.5,163.86666870117188,1426,163.86666870117188,1436.5C163.86666870117188,1447,163.86666870117188,1457.5,163.86666870117188,1468C163.86666870117188,1478.5,163.86666870117188,1489,174.54444694519043,1497.099417672263C185.22222518920898,1505.1988353445258,206.5777816772461,1510.8976706890514,217.25555992126465,1513.7470883613146L227.9333381652832,1516.5965060335773"/><defs><marker id="arrowhead58" viewBox="0 0 10 10" refX="9" refY="5" markerUnits="strokeWidth" markerWidth="8" markerHeight="6" orient="auto"><path d="M 0 0 L 10 5 L 0 10 z"/></marker></defs></g><g class="edge"><path class="path" style="fill: none;" marker-end="url(#arrowhead59)" d="M617.660778106205,605L616.8089813101228,607.0833333333333C615.9571845140406,609.1666666666666,614.2535909218763,613.3333333333333,613.4017941257941,617.5C612.5499973297119,621.6666666666666,612.5499973297119,625.8333333333333,612.5499973297119,627.9166666666666L612.5499973297119,630"/><defs><marker id="arrowhead59" viewBox="0 0 10 10" refX="9" refY="5" markerUnits="strokeWidth" markerWidth="8" markerHeight="6" orient="auto"><path d="M 0 0 L 10 5 L 0 10 z"/></marker></defs></g><g class="edge"><path class="path" style="fill: none;" marker-end="url(#arrowhead60)" d="M696.2644800458636,605L704.0315102168491,607.0833333333333C711.7985403878348,609.1666666666666,727.332600729806,613.3333333333333,740.8414738670228,617.5C754.3503470042394,621.6666666666666,765.8340329367015,625.8333333333333,771.5758759029327,627.9166666666666L777.3177188691639,630"/><defs><marker id="arrowhead60" viewBox="0 0 10 10" refX="9" refY="5" markerUnits="strokeWidth" markerWidth="8" markerHeight="6" orient="auto"><path d="M 0 0 L 10 5 L 0 10 z"/></marker></defs></g><g class="edge"><path class="path" style="fill: none;" marker-end="url(#arrowhead61)" d="M854.0817398797898,630L856.7570044805132,627.9166666666666C859.4322690812367,625.8333333333333,864.7827982826838,621.6666666666666,867.4580628834073,614.3333333333333C870.1333274841309,607,870.1333274841309,596.5,870.1333274841307,585.9999999999999C870.1333274841309,575.5,870.1333274841309,565,857.9222167332966,557.2806013653587C845.7111059824625,549.5612027307175,821.2888844807942,544.6224054614352,809.0777737299601,542.1530068267939L796.866662979126,539.6836081921527"/><defs><marker id="arrowhead61" viewBox="0 0 10 10" refX="9" refY="5" markerUnits="strokeWidth" markerWidth="8" markerHeight="6" orient="auto"><path d="M 0 0 L 10 5 L 0 10 z"/></marker></defs></g><g class="edge"><path class="path" style="fill: none;" marker-end="url(#arrowhead62)" d="M612.5499973297119,668L612.5499973297119,670.0833333333333C612.5499973297119,672.1666666666666,612.5499973297119,676.3333333333333,612.5499973297119,680.5C612.5499973297119,684.6666666666666,612.5499973297119,688.8333333333333,612.5499973297119,690.9166666666666L612.5499973297119,693"/><defs><marker id="arrowhead62" viewBox="0 0 10 10" refX="9" refY="5" markerUnits="strokeWidth" markerWidth="8" markerHeight="6" orient="auto"><path d="M 0 0 L 10 5 L 0 10 z"/></marker></defs></g><g class="edge"><path class="path" style="fill: none;" marker-end="url(#arrowhead63)" d="M543.7177221207392,731L536.1703235232641,733.0833333333333C528.622924925789,735.1666666666666,513.5281277308388,739.3333333333333,505.98072913336375,743.5C498.4333305358887,747.6666666666666,498.4333305358887,751.8333333333333,498.4333305358887,753.9166666666666L498.4333305358887,756"/><defs><marker id="arrowhead63" viewBox="0 0 10 10" refX="9" refY="5" markerUnits="strokeWidth" markerWidth="8" markerHeight="6" orient="auto"><path d="M 0 0 L 10 5 L 0 10 z"/></marker></defs></g><g class="edge"><path class="path" style="fill: none;" marker-end="url(#arrowhead64)" d="M397.4916648864746,787.07237555734L370.418054262797,790.31031296445C343.34444363911945,793.54825037156,289.1972223917643,800.0241251857799,262.12361176808673,808.51206259289C235.05000114440918,817,235.05000114440918,827.5,235.05000114440918,837.9999999999999C235.05000114440918,848.5,235.05000114440918,859,235.05000114440918,869.4999999999999C235.05000114440918,880,235.05000114440918,890.5,235.05000114440918,900.9999999999999C235.05000114440918,911.5,235.05000114440918,922,235.05000114440918,932.4999999999999C235.05000114440918,943,235.05000114440918,953.5,235.05000114440918,963.9999999999999C235.05000114440918,974.5,235.05000114440918,985,235.05000114440918,995.4999999999999C235.05000114440918,1006,235.05000114440918,1016.5,235.05000114440918,1027C235.05000114440918,1037.5,235.05000114440918,1048,235.05000114440918,1058.5C235.05000114440918,1069,235.05000114440918,1079.5,235.05000114440918,1090C235.05000114440918,1100.5,235.05000114440918,1111,235.05000114440918,1121.5C235.05000114440918,1132,235.05000114440918,1142.5,235.05000114440918,1153C235.05000114440918,1163.5,235.05000114440918,1174,235.05000114440918,1184.5C235.05000114440918,1195,235.05000114440918,1205.5,235.05000114440918,1216C235.05000114440918,1226.5,235.05000114440918,1237,235.05000114440918,1247.5C235.05000114440918,1258,235.05000114440918,1268.5,235.05000114440918,1279C235.05000114440918,1289.5,235.05000114440918,1300,235.05000114440918,1310.5C235.05000114440918,1321,235.05000114440918,1331.5,235.05000114440918,1342C235.05000114440918,1352.5,235.05000114440918,1363,235.05000114440918,1373.5C235.05000114440918,1384,235.05000114440918,1394.5,235.05000114440918,1405C235.05000114440918,1415.5,235.05000114440918,1426,235.05000114440918,1436.5C235.05000114440918,1447,235.05000114440918,1457.5,235.05000114440918,1468C235.05000114440918,1478.5,235.05000114440918,1489,238.14909740730567,1496.3333333333333C241.24819367020217,1503.6666666666665,247.4463861959952,1507.8333333333333,250.54548245889168,1509.9166666666667L253.6445787217882,1512"/><defs><marker id="arrowhead64" viewBox="0 0 10 10" refX="9" refY="5" markerUnits="strokeWidth" markerWidth="8" markerHeight="6" orient="auto"><path d="M 0 0 L 10 5 L 0 10 z"/></marker></defs></g><g class="edge"><path class="path" style="fill: none;" marker-end="url(#arrowhead65)" d="M519.4665322076706,794L521.7728043208047,796.0833333333331C524.0790764339386,798.1666666666665,528.6916206602066,802.3333333333333,530.9978927733406,806.5C533.3041648864746,810.6666666666666,533.3041648864746,814.8333333333333,533.3041648864746,816.9166666666666L533.3041648864746,819"/><defs><marker id="arrowhead65" viewBox="0 0 10 10" refX="9" refY="5" markerUnits="strokeWidth" markerWidth="8" markerHeight="6" orient="auto"><path d="M 0 0 L 10 5 L 0 10 z"/></marker></defs></g><g class="edge"><path class="path" style="fill: none;" marker-end="url(#arrowhead66)" d="M584.9260546366373,794L594.4099059634739,796.0833333333331C603.8937572903103,798.1666666666665,622.8614599439833,802.3333333333333,637.4461710591796,806.5C652.0308821743758,810.6666666666666,662.2326017510953,814.8333333333333,667.3334615394551,816.9166666666666L672.4343213278149,819"/><defs><marker id="arrowhead66" viewBox="0 0 10 10" refX="9" refY="5" markerUnits="strokeWidth" markerWidth="8" markerHeight="6" orient="auto"><path d="M 0 0 L 10 5 L 0 10 z"/></marker></defs></g><g class="edge"><path class="path" style="fill: none;" marker-end="url(#arrowhead67)" d="M748.7283684866769,819L751.9930840446835,816.9166666666666C755.2577996026902,814.8333333333333,761.7872307187034,810.6666666666666,765.05194627671,803.3333333333333C768.3166618347168,796,768.3166618347168,785.5,768.3166618347167,774.9999999999999C768.3166618347168,764.5,768.3166618347168,754,758.0146337589889,746.6666666666666C747.712605683261,739.3333333333333,727.1085495318055,735.1666666666666,716.8065214560776,733.0833333333334L706.5044933803498,731"/><defs><marker id="arrowhead67" viewBox="0 0 10 10" refX="9" refY="5" markerUnits="strokeWidth" markerWidth="8" markerHeight="6" orient="auto"><path d="M 0 0 L 10 5 L 0 10 z"/></marker></defs></g><g class="edge"><path class="path" style="fill: none;" marker-end="url(#arrowhead68)" d="M533.3041648864746,857L533.3041648864746,859.0833333333331C533.3041648864746,861.1666666666665,533.3041648864746,865.3333333333333,533.3041648864746,869.5C533.3041648864746,873.6666666666666,533.3041648864746,877.8333333333333,533.3041648864746,879.9166666666666L533.3041648864746,882"/><defs><marker id="arrowhead68" viewBox="0 0 10 10" refX="9" refY="5" markerUnits="strokeWidth" markerWidth="8" markerHeight="6" orient="auto"><path d="M 0 0 L 10 5 L 0 10 z"/></marker></defs></g><g class="edge"><path class="path" style="fill: none;" marker-end="url(#arrowhead69)" d="M533.3041648864746,920L533.3041648864746,922.0833333333331C533.3041648864746,924.1666666666665,533.3041648864746,928.3333333333333,533.3041648864746,932.5C533.3041648864746,936.6666666666666,533.3041648864746,940.8333333333333,533.3041648864746,942.9166666666666L533.3041648864746,945"/><defs><marker id="arrowhead69" viewBox="0 0 10 10" refX="9" refY="5" markerUnits="strokeWidth" markerWidth="8" markerHeight="6" orient="auto"><path d="M 0 0 L 10 5 L 0 10 z"/></marker></defs></g><g class="edge"><path class="path" style="fill: none;" marker-end="url(#arrowhead70)" d="M477.96249771118164,972.6727681833434L453.6854149500528,976.4773068194527C429.4083321889241,980.2818454555622,380.85416666666663,987.8909227277811,356.5770839055379,993.7787946972238C332.3000011444092,999.6666666666666,332.3000011444092,1003.8333333333333,332.3000011444091,1005.9166666666666L332.3000011444092,1008"/><defs><marker id="arrowhead70" viewBox="0 0 10 10" refX="9" refY="5" markerUnits="strokeWidth" markerWidth="8" markerHeight="6" orient="auto"><path d="M 0 0 L 10 5 L 0 10 z"/></marker></defs></g><g class="edge"><path class="path" style="fill: none;" marker-end="url(#arrowhead71)" d="M332.3000011444092,1046L332.3000011444091,1048.0833333333333C332.3000011444092,1050.1666666666665,332.3000011444092,1054.3333333333333,355.374306042989,1060.0327141692346C378.448610941569,1065.732095005136,424.59722073872877,1072.964190010272,447.6715256373087,1076.5802375128399L470.7458305358887,1080.196285015408"/><defs><marker id="arrowhead71" viewBox="0 0 10 10" refX="9" refY="5" markerUnits="strokeWidth" markerWidth="8" markerHeight="6" orient="auto"><path d="M 0 0 L 10 5 L 0 10 z"/></marker></defs></g><g class="edge"><path class="path" style="fill: none;" marker-end="url(#arrowhead72)" d="M470.7458305358887,1100.743287889995L450.6013870239257,1104.202739908329C430.45694351196283,1107.6621919266631,390.1680564880371,1114.5810959633316,370.0236129760742,1123.290547981666C349.8791694641113,1132,349.8791694641113,1142.5,349.8791694641113,1153C349.8791694641113,1163.5,349.8791694641113,1174,349.8791694641113,1184.5C349.8791694641113,1195,349.8791694641113,1205.5,349.8791694641113,1216C349.8791694641113,1226.5,349.8791694641113,1237,349.8791694641113,1247.5C349.8791694641113,1258,349.8791694641113,1268.5,349.8791694641113,1279C349.8791694641113,1289.5,349.8791694641113,1300,349.8791694641113,1310.5C349.8791694641113,1321,349.8791694641113,1331.5,349.8791694641113,1342C349.8791694641113,1352.5,349.8791694641113,1363,349.8791694641113,1373.5C349.8791694641113,1384,349.8791694641113,1394.5,349.8791694641113,1405C349.8791694641113,1415.5,349.8791694641113,1426,349.8791694641113,1436.5C349.8791694641113,1447,349.8791694641113,1457.5,349.8791694641113,1468C349.8791694641113,1478.5,349.8791694641113,1489,345.3837440127418,1496.3333333333333C340.88831856137233,1503.6666666666665,331.8974676586333,1507.8333333333333,327.4020422072638,1509.9166666666667L322.9066167558943,1512"/><defs><marker id="arrowhead72" viewBox="0 0 10 10" refX="9" refY="5" markerUnits="strokeWidth" markerWidth="8" markerHeight="6" orient="auto"><path d="M 0 0 L 10 5 L 0 10 z"/></marker></defs></g><g class="edge"><path class="path" style="fill: none;" marker-end="url(#arrowhead73)" d="M572.900063590398,1109L577.2417191500386,1111.0833333333333C581.5833747096793,1113.1666666666665,590.2666858289607,1117.3333333333333,594.6083413886014,1121.5C598.9499969482422,1125.6666666666665,598.9499969482422,1129.8333333333333,598.9499969482421,1131.9166666666665L598.9499969482422,1134"/><defs><marker id="arrowhead73" viewBox="0 0 10 10" refX="9" refY="5" markerUnits="strokeWidth" markerWidth="8" markerHeight="6" orient="auto"><path d="M 0 0 L 10 5 L 0 10 z"/></marker></defs></g><g class="edge"><path class="path" style="fill: none;" marker-end="url(#arrowhead74)" d="M595.8624992370605,1076.2088176073428L609.2506930033366,1073.257348006119C622.6388867696126,1070.305878404895,649.4152743021647,1064.4029392024477,662.8034680684408,1056.2014696012238C676.1916618347168,1048,676.1916618347168,1037.5,676.1916618347168,1027C676.1916618347168,1016.5,676.1916618347168,1006,661.600690205892,997.5333742201077C647.009718577067,989.0667484402155,617.8277753194172,982.633496880431,603.2368036905924,979.4168711005389L588.6458320617676,976.2002453206468"/><defs><marker id="arrowhead74" viewBox="0 0 10 10" refX="9" refY="5" markerUnits="strokeWidth" markerWidth="8" markerHeight="6" orient="auto"><path d="M 0 0 L 10 5 L 0 10 z"/></marker></defs></g><g class="edge"><path class="path" style="fill: none;" marker-end="url(#arrowhead75)" d="M281.9083366394043,1550L281.9083366394043,1552.083333333333C281.9083366394043,1554.1666666666665,281.9083366394043,1558.333333333333,281.9083366394043,1562.4999999999998C281.9083366394043,1566.6666666666665,281.9083366394043,1570.8333333333333,281.9083366394043,1572.9166666666665L281.9083366394043,1575"/><defs><marker id="arrowhead75" viewBox="0 0 10 10" refX="9" refY="5" markerUnits="strokeWidth" markerWidth="8" markerHeight="6" orient="auto"><path d="M 0 0 L 10 5 L 0 10 z"/></marker></defs></g><g class="edge"><path class="path" style="fill: none;" marker-end="url(#arrowhead76)" d="M598.9499969482422,1172L598.9499969482421,1174.0833333333333C598.9499969482422,1176.1666666666665,598.9499969482422,1180.3333333333333,598.9499969482421,1184.5C598.9499969482422,1188.6666666666665,598.9499969482422,1192.8333333333333,598.9499969482421,1194.9166666666665L598.9499969482422,1197"/><defs><marker id="arrowhead76" viewBox="0 0 10 10" refX="9" refY="5" markerUnits="strokeWidth" markerWidth="8" markerHeight="6" orient="auto"><path d="M 0 0 L 10 5 L 0 10 z"/></marker></defs></g><g class="edge"><path class="path" style="fill: none;" marker-end="url(#arrowhead77)" d="M598.9499969482422,1235L598.9499969482421,1237.0833333333333C598.9499969482422,1239.1666666666665,598.9499969482422,1243.3333333333333,598.9499969482421,1247.5C598.9499969482422,1251.6666666666665,598.9499969482422,1255.8333333333333,598.9499969482421,1257.9166666666667L598.9499969482422,1260"/><defs><marker id="arrowhead77" viewBox="0 0 10 10" refX="9" refY="5" markerUnits="strokeWidth" markerWidth="8" markerHeight="6" orient="auto"><path d="M 0 0 L 10 5 L 0 10 z"/></marker></defs></g><g class="edge"><path class="path" style="fill: none;" marker-end="url(#arrowhead78)" d="M563.3978811597067,1298L559.4996228495602,1300.0833333333333C555.6013645394138,1302.1666666666665,547.8048479191209,1306.3333333333333,543.9065896089745,1310.5C540.0083312988281,1314.6666666666665,540.0083312988281,1318.8333333333333,540.0083312988281,1320.9166666666667L540.0083312988281,1323"/><defs><marker id="arrowhead78" viewBox="0 0 10 10" refX="9" refY="5" markerUnits="strokeWidth" markerWidth="8" markerHeight="6" orient="auto"><path d="M 0 0 L 10 5 L 0 10 z"/></marker></defs></g><g class="edge"><path class="path" style="fill: none;" marker-end="url(#arrowhead79)" d="M645.5402075146872,1298L650.648783234692,1300.0833333333333C655.757358954697,1302.1666666666665,665.9745103947068,1306.3333333333333,671.0830861147118,1313.6666666666667C676.1916618347168,1321,676.1916618347168,1331.5,676.1916618347168,1342C676.1916618347168,1352.5,676.1916618347168,1363,676.1916618347168,1373.5C676.1916618347168,1384,676.1916618347168,1394.5,676.1916618347168,1405C676.1916618347168,1415.5,676.1916618347168,1426,676.1916618347168,1436.5C676.1916618347168,1447,676.1916618347168,1457.5,676.1916618347168,1468C676.1916618347168,1478.5,676.1916618347168,1489,619.4736073811849,1498.781306806853C562.755552927653,1508.5626136137066,449.3194440205892,1517.625227227413,392.60138956705725,1522.1565340342663L335.8833351135254,1526.6878408411196"/><defs><marker id="arrowhead79" viewBox="0 0 10 10" refX="9" refY="5" markerUnits="strokeWidth" markerWidth="8" markerHeight="6" orient="auto"><path d="M 0 0 L 10 5 L 0 10 z"/></marker></defs></g><g class="edge"><path class="path" style="fill: none;" marker-end="url(#arrowhead80)" d="M502.4657397800022,1361L498.3492275520607,1363.0833333333333C494.2327153241193,1365.1666666666665,485.99969086823637,1369.3333333333333,481.8831786402949,1373.5C477.76666641235346,1377.6666666666665,477.76666641235346,1381.8333333333333,477.7666664123534,1383.9166666666667L477.7666664123535,1386"/><defs><marker id="arrowhead80" viewBox="0 0 10 10" refX="9" refY="5" markerUnits="strokeWidth" markerWidth="8" markerHeight="6" orient="auto"><path d="M 0 0 L 10 5 L 0 10 z"/></marker></defs></g><g class="edge"><path class="path" style="fill: none;" marker-end="url(#arrowhead81)" d="M477.7666664123535,1424L477.7666664123534,1426.0833333333333C477.76666641235346,1428.1666666666665,477.76666641235346,1432.3333333333333,481.8831786402949,1436.5C485.99969086823637,1440.6666666666665,494.2327153241193,1444.8333333333333,498.3492275520607,1446.9166666666667L502.4657397800022,1449"/><defs><marker id="arrowhead81" viewBox="0 0 10 10" refX="9" refY="5" markerUnits="strokeWidth" markerWidth="8" markerHeight="6" orient="auto"><path d="M 0 0 L 10 5 L 0 10 z"/></marker></defs></g><g class="edge"><path class="path" style="fill: none;" marker-end="url(#arrowhead82)" d="M516.8313499329582,1487L514.290014256876,1489.0833333333333C511.7486785807937,1491.1666666666665,506.66600722862927,1495.3333333333333,504.124671552547,1502.6666666666667C501.58333587646484,1510,501.58333587646484,1520.5,501.5833358764648,1531C501.58333587646484,1541.5,501.58333587646484,1551.9999999999998,501.5833358764648,1559.3333333333333C501.58333587646484,1566.6666666666665,501.58333587646484,1570.8333333333333,501.5833358764648,1572.9166666666665L501.58333587646484,1575"/><defs><marker id="arrowhead82" viewBox="0 0 10 10" refX="9" refY="5" markerUnits="strokeWidth" markerWidth="8" markerHeight="6" orient="auto"><path d="M 0 0 L 10 5 L 0 10 z"/></marker></defs></g><g class="edge"><path class="path" style="fill: none;" marker-end="url(#arrowhead83)" d="M577.550922817654,1487L581.6674350455955,1489.0833333333333C585.7839472735369,1491.1666666666665,594.0169717294198,1495.3333333333333,553.7390404453984,1501.7820838047596C513.461109161377,1508.230834276186,424.6722221374512,1516.961668552372,380.2777786254882,1521.327085690465L335.8833351135254,1525.6925028285582"/><defs><marker id="arrowhead83" viewBox="0 0 10 10" refX="9" refY="5" markerUnits="strokeWidth" markerWidth="8" markerHeight="6" orient="auto"><path d="M 0 0 L 10 5 L 0 10 z"/></marker></defs></g><g class="edge"><path class="path" style="fill: none;" marker-end="url(#arrowhead84)" d="M577.550922817654,1449L581.6674350455955,1446.9166666666667C585.7839472735369,1444.8333333333333,594.0169717294198,1440.6666666666665,598.1334839573612,1433.3333333333333C602.2499961853027,1426,602.2499961853027,1415.5,602.2499961853027,1405C602.2499961853027,1394.5,602.2499961853027,1384,598.1334839573612,1376.6666666666665C594.0169717294198,1369.3333333333333,585.7839472735369,1365.1666666666665,581.6674350455955,1363.0833333333333L577.550922817654,1361"/><defs><marker id="arrowhead84" viewBox="0 0 10 10" refX="9" refY="5" markerUnits="strokeWidth" markerWidth="8" markerHeight="6" orient="auto"><path d="M 0 0 L 10 5 L 0 10 z"/></marker></defs></g><g class="edge"><path class="path" style="fill: none;" marker-end="url(#arrowhead85)" d="M281.9083366394043,1613L281.9083366394043,1615.083333333333C281.9083366394043,1617.1666666666665,281.9083366394043,1621.333333333333,281.4108859017281,1624.9849433676554C280.913435164052,1628.636553401978,279.9185336886996,1631.7731068039564,279.42108295102344,1633.3413835049455L278.9236322133473,1634.9096602059346"/><defs><marker id="arrowhead85" viewBox="0 0 10 10" refX="9" refY="5" markerUnits="strokeWidth" markerWidth="8" markerHeight="6" orient="auto"><path d="M 0 0 L 10 5 L 0 10 z"/></marker></defs></g><g class="edge"><path class="path" style="fill: none;" marker-end="url(#arrowhead86)" d="M501.58333587646484,1613L501.5833358764648,1615.083333333333C501.58333587646484,1617.1666666666665,501.58333587646484,1621.333333333333,467.13223304176785,1628.141817939368C432.68113020707085,1634.9503025454028,363.7789245376769,1644.400605090806,329.32782170298,1649.1257563635077L294.876718868283,1653.8509076362093"/><defs><marker id="arrowhead86" viewBox="0 0 10 10" refX="9" refY="5" markerUnits="strokeWidth" markerWidth="8" markerHeight="6" orient="auto"><path d="M 0 0 L 10 5 L 0 10 z"/></marker></defs></g></g></g><style xmlns="http://www.w3.org/1999/xhtml">.node &gt; .shape {stroke: #555555;stroke-width: 0.6px;fill: #FFFFFF;} path {stroke: #555;background-color: #555;stroke-width: 1px;} .node.state.NotYetStarted &gt; .shape,.node.state.Container &gt; .shape {stroke-dasharray: 5 2;} .node.state.Failed &gt; .shape,rect.legend.Failed {fill: #DE322F;} .node.state.CaughtError &gt; .shape,rect.legend.CaughtError {fill: #FFA500;} .node.state.Succeeded &gt; .shape,rect.legend.Succeeded {fill: #2BD62E;} .node.state.InProgress &gt; .shape,rect.legend.InProgress {fill: #53c9ed;} .node.state.Cancelled &gt; .shape,rect.legend.Cancelled {fill: #dddddd;} .node.anchor &gt; .shape {fill: #FFDA75;} .node.state.hovered:not(.selected):not(.NotYetStarted) &gt; .shape,.node.selected &gt; .shape {stroke: #555555;stroke-width: 2px;} .node.state.Container.Failed &gt; .shape {fill: #EE9592;} .node.state.Container.CaughtError &gt; .shape {fill: #FFD27F;} .node.state.Container.Succeeded &gt; .shape {fill: #91EA9A;} .node.state.Container.InProgress &gt; .shape {fill :#A9E4F7;} .node.state.Container.Cancelled &gt; .shape {fill: #EEEEEE;} marker {fill: #555555;} .node.anchor,.node.state.NotYetStarted {cursor: default;} .node.state {cursor: pointer;} tspan .label {font-weight: normal;font-size: 12px;text-shadow: none;} </style></svg>